<svg xmlns="http://www.w3.org/2000/svg" xmlns:xlink="http://www.w3.org/1999/xlink" version="1.1" width="256" height="256" viewBox="0 0 256 256" xml:space="preserve">
<desc>Created with Fabric.js 1.7.22</desc>
<defs>
</defs>
<g transform="translate(128 128) scale(0.72 0.72)" style="">
	<g style="stroke: none; stroke-width: 0; stroke-dasharray: none; stroke-linecap: butt; stroke-linejoin: miter; stroke-miterlimit: 10; fill: none; fill-rule: nonzero; opacity: 1;" transform="translate(-175.05 -175.05000000000004) scale(3.89 3.89)" >
	<path d="M 89.255 80.755 c -3.156 -1.839 -6.335 -2.728 -9.514 -2.681 c -4.615 -5.199 -12.943 -9.059 -22.782 -10.821 l 7.346 -27.417 c 1.795 1.064 3.439 2.713 4.938 4.981 c 0.05 0.076 0.11 0.142 0.176 0.2 c 0.009 0.008 0.019 0.013 0.028 0.02 c 0.017 0.014 0.036 0.024 0.053 0.036 c 0.069 0.049 0.141 0.088 0.218 0.118 c 0.023 0.009 0.045 0.019 0.069 0.026 c 0.003 0.001 0.006 0.002 0.009 0.003 c 0.008 0.002 0.013 0.008 0.021 0.01 c 0.003 0.001 0.007 0 0.01 0.001 c 0.068 0.018 0.138 0.025 0.209 0.028 c 0.013 0.001 0.027 0.005 0.041 0.005 c 0.008 0 0.015 -0.004 0.022 -0.004 c 0.004 0 0.009 -0.002 0.013 -0.002 c 0.028 -0.001 0.055 -0.009 0.084 -0.012 c 0.061 -0.007 0.122 -0.013 0.182 -0.032 c 0.032 -0.01 0.06 -0.028 0.091 -0.041 c 0.017 -0.007 0.036 -0.006 0.053 -0.014 c 7.073 -3.532 12.632 -2.044 16.993 4.554 c 0.057 0.086 0.127 0.156 0.203 0.218 c 0.017 0.014 0.035 0.024 0.053 0.037 c 0.092 0.065 0.191 0.117 0.297 0.148 c 0.007 0.002 0.012 0.008 0.02 0.01 c 0.003 0.001 0.006 0 0.009 0.001 c 0.081 0.021 0.165 0.033 0.25 0.033 c 0.101 0 0.202 -0.018 0.301 -0.05 c 0.037 -0.012 0.068 -0.032 0.103 -0.048 c 0.049 -0.022 0.099 -0.037 0.145 -0.068 c 0.008 -0.005 0.012 -0.014 0.02 -0.02 c 0.099 -0.07 0.188 -0.153 0.257 -0.256 c 0.01 -0.015 0.013 -0.033 0.022 -0.049 c 0.046 -0.077 0.089 -0.158 0.114 -0.249 c 1.684 -6.281 0.273 -12.975 -3.972 -18.848 c -4.2 -5.811 -10.685 -10.13 -18.26 -12.159 c -7.575 -2.031 -15.349 -1.532 -21.893 1.4 c -6.593 2.955 -11.152 8.025 -12.848 14.279 c 0 0.001 0 0.001 0 0.002 c -0.005 0.019 -0.012 0.038 -0.017 0.057 c -0.013 0.048 -0.003 0.094 -0.009 0.142 c -0.009 0.072 -0.021 0.143 -0.014 0.216 c 0.007 0.073 0.033 0.139 0.056 0.208 c 0.015 0.046 0.015 0.093 0.037 0.138 c 0.005 0.009 0.013 0.014 0.018 0.023 c 0.035 0.065 0.087 0.118 0.135 0.174 c 0.037 0.043 0.067 0.092 0.111 0.127 c 0.042 0.034 0.095 0.054 0.143 0.081 c 0.066 0.038 0.129 0.078 0.201 0.1 c 0.009 0.003 0.016 0.01 0.026 0.013 c 0.047 0.013 0.092 0.003 0.139 0.009 c 0.073 0.009 0.144 0.022 0.219 0.014 c 0.077 -0.008 0.146 -0.035 0.218 -0.059 c 0.042 -0.014 0.086 -0.014 0.128 -0.035 c 7.074 -3.533 12.632 -2.043 16.992 4.553 c 0.057 0.086 0.127 0.156 0.202 0.218 c 0.017 0.014 0.036 0.025 0.055 0.038 c 0.091 0.065 0.19 0.116 0.296 0.147 c 0.008 0.002 0.013 0.008 0.021 0.01 c 0.003 0.001 0.005 0 0.008 0.001 c 0.044 0.011 0.089 0.014 0.134 0.019 c 0.256 0.104 0.55 0.111 0.816 -0.023 c 2.326 -1.161 4.484 -1.768 6.493 -1.841 l -7.518 28.059 c -2.08 -0.189 -4.199 -0.297 -6.349 -0.297 c -14.85 0 -28.448 4.658 -34.866 11.889 c -3.178 -0.047 -6.357 0.842 -9.514 2.68 c -0.476 0.278 -0.637 0.888 -0.36 1.363 c 0.278 0.476 0.889 0.636 1.364 0.36 c 5.566 -3.242 10.979 -3.244 16.547 0 c 3.078 1.793 6.178 2.69 9.278 2.69 c 3.099 0 6.2 -0.897 9.277 -2.69 c 5.567 -3.242 10.98 -3.244 16.547 0 c 6.156 3.585 12.399 3.587 18.555 0 c 5.569 -3.243 10.979 -3.243 16.548 0 c 0.475 0.277 1.087 0.116 1.363 -0.36 C 89.892 81.643 89.731 81.033 89.255 80.755 z M 53.048 37.72 c 3.551 -11.689 9.695 -18.399 13.511 -17.38 c 3.791 1.016 5.762 9.815 3.056 21.621 C 65.208 36.458 59.649 35.03 53.048 37.72 z M 83.719 31.741 c 3.405 4.712 4.825 9.975 4.099 15.033 c -4.348 -5.374 -9.811 -6.799 -16.287 -4.238 c 1.994 -8.647 1.666 -16.372 -0.611 -20.685 C 76.159 24.045 80.617 27.45 83.719 31.741 z M 34.931 32.604 c 1.9 -4.744 5.762 -8.592 11.067 -10.97 c 4.83 -2.166 10.394 -2.885 16.027 -2.165 c -4.131 2.595 -8.274 9.121 -10.87 17.607 C 46.829 31.622 41.386 30.124 34.931 32.604 z M 60.777 38.536 c 0.579 0.093 1.142 0.245 1.695 0.439 l -7.49 27.954 c -0.58 -0.086 -1.158 -0.174 -1.746 -0.245 L 60.777 38.536 z M 70.701 80.755 c -5.569 3.244 -10.981 3.243 -16.549 0 c -6.154 -3.585 -12.397 -3.586 -18.554 0 c -5.568 3.245 -10.98 3.243 -16.547 0 c -2.165 -1.261 -4.341 -2.069 -6.52 -2.443 C 18.949 72.111 31.34 68.18 44.875 68.18 c 13.535 0 25.926 3.931 32.344 10.133 C 75.041 78.687 72.865 79.494 70.701 80.755 z" style="stroke: none; stroke-width: 1; stroke-dasharray: none; stroke-linecap: butt; stroke-linejoin: miter; stroke-miterlimit: 10; fill: rgb(0,0,0); fill-rule: nonzero; opacity: 1;" transform=" matrix(1 0 0 1 0 0) " stroke-linecap="round" />
	<path d="M 10.7 32.932 c -0.186 0 -0.372 -0.026 -0.554 -0.079 c -0.614 -0.181 -1.104 -0.65 -1.311 -1.256 l -0.933 -2.731 l -2.849 0.301 c -0.632 0.061 -1.266 -0.186 -1.686 -0.67 c -0.419 -0.484 -0.578 -1.143 -0.424 -1.765 l 0.692 -2.802 l -2.559 -1.287 c -0.57 -0.291 -0.965 -0.842 -1.056 -1.476 c -0.091 -0.633 0.132 -1.274 0.597 -1.713 l 2.097 -1.983 l -1.457 -2.466 c -0.322 -0.553 -0.356 -1.23 -0.091 -1.812 c 0.266 -0.582 0.8 -1.001 1.428 -1.119 l 2.837 -0.535 l 0.107 -2.863 c 0.028 -0.639 0.366 -1.227 0.904 -1.573 c 0.539 -0.345 1.214 -0.409 1.807 -0.169 l 2.675 1.084 l 1.639 -2.35 c 0.369 -0.522 0.971 -0.835 1.611 -0.835 c 0.64 0 1.243 0.313 1.612 0.836 l 1.664 2.358 l 2.648 -1.092 c 0.593 -0.242 1.269 -0.177 1.807 0.169 c 0.538 0.346 0.876 0.934 0.904 1.573 l 0.125 2.884 l 2.818 0.513 c 0.63 0.119 1.163 0.538 1.429 1.12 c 0.265 0.582 0.232 1.259 -0.091 1.812 l -1.453 2.494 l 2.093 1.956 c 0.465 0.439 0.688 1.08 0.597 1.713 c -0.091 0.633 -0.485 1.185 -1.056 1.476 l -2.57 1.312 l 0.703 2.777 c 0.154 0.621 -0.005 1.281 -0.424 1.765 c -0.419 0.484 -1.052 0.73 -1.686 0.67 l -2.872 -0.286 l -0.91 2.717 c -0.206 0.606 -0.697 1.075 -1.311 1.255 c -0.614 0.181 -1.28 0.05 -1.781 -0.348 l -2.261 -1.793 l -2.234 1.793 C 11.575 32.785 11.141 32.932 10.7 32.932 z M 7.927 26.886 c 0.838 0 1.587 0.527 1.862 1.336 l 0.933 2.731 l 2.226 -1.804 c 0.722 -0.572 1.73 -0.572 2.451 0 l 2.262 1.793 l 0.898 -2.721 c 0.297 -0.872 1.144 -1.42 2.062 -1.325 l 2.872 0.286 l -0.716 -2.775 c -0.221 -0.894 0.198 -1.811 1.018 -2.23 l 2.57 -1.312 l -2.102 -1.947 c -0.67 -0.633 -0.813 -1.631 -0.348 -2.427 L 25.37 14 l -2.821 -0.502 c -0.906 -0.17 -1.566 -0.932 -1.605 -1.853 l -0.125 -2.883 l -2.645 1.103 c -0.857 0.345 -1.821 0.062 -2.352 -0.691 l -1.652 -2.34 l -1.641 2.341 c -0.531 0.752 -1.498 1.035 -2.351 0.691 L 7.502 8.781 l -0.095 2.864 c -0.04 0.921 -0.701 1.682 -1.605 1.853 l -2.836 0.534 l 1.469 2.461 c 0.464 0.796 0.32 1.793 -0.349 2.426 l -2.097 1.983 l 2.566 1.276 c 0.82 0.418 1.239 1.336 1.018 2.23 L 4.88 27.21 l 2.849 -0.314 C 7.795 26.889 7.862 26.886 7.927 26.886 z" style="stroke: none; stroke-width: 1; stroke-dasharray: none; stroke-linecap: butt; stroke-linejoin: miter; stroke-miterlimit: 10; fill: rgb(0,0,0); fill-rule: nonzero; opacity: 1;" transform=" matrix(1 0 0 1 0 0) " stroke-linecap="round" />
	<path d="M 14.175 25.863 c -3.849 0 -6.981 -3.131 -6.981 -6.981 s 3.131 -6.981 6.981 -6.981 s 6.981 3.131 6.981 6.981 S 18.024 25.863 14.175 25.863 z M 14.175 13.896 c -2.749 0 -4.986 2.237 -4.986 4.986 s 2.237 4.986 4.986 4.986 s 4.986 -2.237 4.986 -4.986 S 16.924 13.896 14.175 13.896 z" style="stroke: none; stroke-width: 1; stroke-dasharray: none; stroke-linecap: butt; stroke-linejoin: miter; stroke-miterlimit: 10; fill: rgb(0,0,0); fill-rule: nonzero; opacity: 1;" transform=" matrix(1 0 0 1 0 0) " stroke-linecap="round" />
</g>
</g>
</svg>