<?xml version="1.0" encoding="iso-8859-1"?>
<!-- Generator: Adobe Illustrator 19.0.0, SVG Export Plug-In . SVG Version: 6.00 Build 0)  -->
<svg version="1.1" id="Layer_1" xmlns="http://www.w3.org/2000/svg" xmlns:xlink="http://www.w3.org/1999/xlink" x="0px" y="0px"
	 viewBox="0 0 512 512" style="enable-background:new 0 0 512 512;" xml:space="preserve">
<g>
	<g>
		<path d="M471.499,212.01c-0.059-0.162-0.061-0.321-0.131-0.48c-0.178-0.411-0.355-0.806-0.594-1.184
			c-0.044-0.07-0.061-0.144-0.107-0.213c-0.3-0.454-0.645-0.872-1.026-1.265c-0.033-0.034-0.515-0.075-0.55-0.108l-33.744-33.285
			V53.495c0-4.958-3.086-8.376-8.049-8.376H305.317L263.055,2.556c-3.507-3.507-9.189-3.356-12.696,0.151l-42.262,42.412H86.116
			c-4.963,0-9.908,3.417-9.908,8.376v121.981l-32.819,33.285c-0.035,0.034,0.175,0.075,0.143,0.108
			c-0.379,0.393-0.614,0.811-0.916,1.265c-0.046,0.069-0.02,0.143-0.064,0.213c-0.237,0.378-0.417,0.773-0.594,1.184
			c-0.07,0.159-0.114,0.318-0.173,0.48c-0.13,0.349-0.228,0.708-0.314,1.075c-0.035,0.156-0.539,0.307-0.565,0.462
			c-0.092,0.511-0.612,1.029-0.612,1.56v260.411c0,19.786,17.045,36.482,36.852,36.482h359.13c19.807,0,34.984-16.696,34.984-36.482
			V215.107c0-0.53,0.406-1.049,0.316-1.56c-0.029-0.156,0.162-0.307,0.125-0.462C471.616,212.718,471.629,212.36,471.499,212.01z
			 M435.347,200.868l14.373,14.374l-14.373,14.999V200.868z M256.707,21.901l23.218,23.218h-46.436L256.707,21.901z M94.165,63.076
			h117.65h89.785H417.39v185.902L255.777,417.614L94.165,248.979V63.076z M76.208,200.868v29.373l-14.373-14.999L76.208,200.868z
			 M58.251,475.518V237.454l123.515,128.64L59.432,480.488C58.974,478.908,58.251,477.245,58.251,475.518z M436.276,494.043H77.146
			c-1.464,0-2.88-0.495-4.242-0.826L194.89,379.212l55.337,57.666c3.385,3.534,9.575,3.496,12.959-0.037l55.337-57.762
			l121.988,114.147C439.15,493.556,437.736,494.043,436.276,494.043z M453.304,475.518c0,1.726-0.026,3.39-0.484,4.969
			L330.485,366.094l122.818-128.64V475.518z"/>
	</g>
</g>
<g>
	<g>
		<path d="M292.621,98.99h-71.828c-4.963,0-8.978,4.02-8.978,8.978s4.016,8.978,8.978,8.978h71.828c4.963,0,8.978-4.02,8.978-8.978
			S297.583,98.99,292.621,98.99z"/>
	</g>
</g>
<g>
	<g>
		<path d="M355.47,161.84H157.944c-4.963,0-8.978,4.02-8.978,8.978s4.016,8.978,8.978,8.978H355.47c4.963,0,8.978-4.02,8.978-8.978
			S360.433,161.84,355.47,161.84z"/>
	</g>
</g>
<g>
	<g>
		<path d="M355.672,224.689H157.944c-4.963,0-8.978,4.02-8.978,8.978c0,4.958,4.016,8.979,8.978,8.979h197.728
			c4.963,0,8.978-4.02,8.978-8.979C364.65,228.709,360.634,224.689,355.672,224.689z"/>
	</g>
</g>
<g>
	<g>
		<path d="M337.513,287.538H175.901c-4.963,0-8.979,4.02-8.979,8.978s4.016,8.978,8.979,8.978h161.612
			c4.963,0,8.979-4.02,8.979-8.978S342.476,287.538,337.513,287.538z"/>
	</g>
</g>
<g>
</g>
<g>
</g>
<g>
</g>
<g>
</g>
<g>
</g>
<g>
</g>
<g>
</g>
<g>
</g>
<g>
</g>
<g>
</g>
<g>
</g>
<g>
</g>
<g>
</g>
<g>
</g>
<g>
</g>
</svg>
