<svg id="Group_1_copy" data-name="Group 1 copy" xmlns="http://www.w3.org/2000/svg" width="912" height="301" viewBox="0 0 912 301">
  <defs>
    <style>
      .cls-1 {
        fill: #fff;
      }

      .cls-1, .cls-2, .cls-3 {
        fill-rule: evenodd;
      }

      .cls-2 {
        fill: #0c1d37;
      }

      .cls-3 {
        fill: #3dd1d5;
      }
    </style>
  </defs>
  <path class="cls-1" d="M223.867,73.234C162.55,48.732,131.95,98.61,131.95,98.61s-30.6-49.877-91.917-25.376c-26.4,10.547-42.56,38.285-39.7,73.3a22,22,0,0,0,3.309,10.095l0.034,0.054c21.839,33.954,103.184,20.6,181.691-29.825a364.005,364.005,0,0,0,55.39-43.386A59.93,59.93,0,0,0,223.867,73.234Z"/>
  <path class="cls-2" d="M277.255,40.85c-13.143,33.98-50.87,75.347-102.932,108.806-60.634,38.968-122.954,55.8-158.245,45.788l0.2,0.372a56.1,56.1,0,0,0,68.467,26.233,356.9,356.9,0,0,0,70.894-35.533c40.948-26.316,73.025-57.525,91.254-86.185-13.143,33.981-50.871,75.348-102.933,108.807C114.9,227.814,85.453,241.4,58.777,249.391c19.109,17.774,43.455,35.264,73.815,51.61,132.016-71.079,150.45-163.789,118.024-207.439C269.41,71.25,277.255,40.85,277.255,40.85Z"/>
  <path class="cls-3" d="M298,0L262.935,39.59l8.238-2.045,18.72-26.706L273.75,36.484l7.556,6.506-3.81-8.26L294.637,5.666,286.046,30.61l11.392-4.37Z"/>
  <path id="Shape_4_copy" data-name="Shape 4 copy" class="cls-3" d="M299,0L263.935,39.59l8.238-2.045,18.72-26.706L274.75,36.484l7.556,6.506-3.81-8.26L295.637,5.666,287.046,30.61l11.392-4.37Z"/>
  <path id="Shape_4_copy_2" data-name="Shape 4 copy 2" class="cls-3" d="M300,0L264.935,39.59l8.238-2.045,18.72-26.706L275.75,36.484l7.556,6.506-3.81-8.26L296.637,5.666,288.046,30.61l11.393-4.37Z"/>
  <path id="Shape_4_copy_3" data-name="Shape 4 copy 3" class="cls-3" d="M301,0L265.935,39.59l8.238-2.045,18.72-26.706L276.75,36.484l7.556,6.506-3.81-8.26L297.637,5.666,289.046,30.61l11.393-4.37Z"/>
  <path id="Ciya" class="cls-1" d="M360.017,122.775a48.259,48.259,0,0,0-17.787,19.257q-6.471,12.348-6.468,28.812,0,16.758,6.247,28.665a43.479,43.479,0,0,0,17.567,18.228q11.317,6.323,26.313,6.321,9.553,0,15.655-2.867a76.86,76.86,0,0,0,11.54-6.688q3.231-2.056,4.63-.441T419.7,222h3.381q-0.3-5.733-.441-14.186t-0.147-22.27h-3.381a95.287,95.287,0,0,1-2.793,16.243A22.385,22.385,0,0,1,409.7,212.3a21.912,21.912,0,0,1-9.408,6.321,32.921,32.921,0,0,1-11.172,2.058,23.886,23.886,0,0,1-13.451-3.822,30.548,30.548,0,0,1-9.7-10.658,56.129,56.129,0,0,1-5.88-16.023,94.294,94.294,0,0,1-1.984-19.918,101.045,101.045,0,0,1,1.837-19.7,58.116,58.116,0,0,1,5.586-16.244,31.66,31.66,0,0,1,9.408-11.025,22.292,22.292,0,0,1,13.3-4.042,31.762,31.762,0,0,1,11.539,2.131,24.466,24.466,0,0,1,9.482,6.542,25.476,25.476,0,0,1,5.071,6.174,28.529,28.529,0,0,1,2.867,7.717q1.026,4.486,1.911,11.1h3.381q0-13.23.147-21.315t0.441-13.671H419.7q-0.59,6.322-2.132,8.011t-4.483-.514a54.749,54.749,0,0,0-11.1-6.689q-6.249-2.867-15.949-2.866A48.936,48.936,0,0,0,360.017,122.775Zm85.113-11.319a10.667,10.667,0,0,0,0,15.582,14.263,14.263,0,0,0,17.346,0,10.667,10.667,0,0,0,0-15.582A14.263,14.263,0,0,0,445.13,111.456Zm9.922,34.471a99.31,99.31,0,0,1-10.363.515q-4.41,0-9.115-.441v3.087q5.734,0,7.865,3.16t2.132,9.923v46.158q0,6.174-2.279,8.379t-7.718,2.205V222q2.791-.144,8.38-0.368t11.025-.22q5.584,0,11.025.22T474.089,222v-3.087q-5.44,0-7.718-2.205t-2.278-8.379V144.384A65.13,65.13,0,0,1,455.052,145.927Zm90.846,0.515q-3.015.148-6.1,0.147-2.06,0-4.263-.073t-4.557-.221q-2.352-.144-4.7-0.294v3.087a13.405,13.405,0,0,1,7.645,2.5,9.009,9.009,0,0,1,3.233,6.468q0.441,4.266-2.058,11.172l-12.936,34.986,1.177-.588L504.958,158.79q-1.911-4.851-1.1-6.836a4.111,4.111,0,0,1,3.454-2.425,36.932,36.932,0,0,1,6.027-.441V146q-4.41.3-9.481,0.588t-10.511.294q-4.706,0-9.334-.221T475.118,146v3.087a9.374,9.374,0,0,1,4.115,1.323q2.5,1.323,5.292,6.909l30.283,70.266,4.557-6.909L541.12,161q2.205-6.318,4.631-8.82a10.248,10.248,0,0,1,5.218-3.087V146Q548.91,146.3,545.9,146.442Zm-29.915,74.235-5.292,14.553q-2.06,6.026-5.439,8.82a11.7,11.7,0,0,1-7.644,2.793,10.315,10.315,0,0,1-1.1-.074q-0.661-.075-1.4-0.22a10.186,10.186,0,0,0,4.558-3.381,8.249,8.249,0,0,0,1.616-5q0-4.266-2.719-6.395a12.731,12.731,0,0,0-14.627.368,8.442,8.442,0,0,0-2.792,6.615,8.839,8.839,0,0,0,2.131,6.174,13.259,13.259,0,0,0,5.292,3.528,18.622,18.622,0,0,0,6.541,1.176,25.949,25.949,0,0,0,6.983-.882,13.7,13.7,0,0,0,5.365-2.793,16.694,16.694,0,0,0,3.455-4.19,35.774,35.774,0,0,0,2.866-6.247l5.587-14.847h-3.382Zm71.148-.882a26.752,26.752,0,0,0,8.673-9.114,15.979,15.979,0,0,0,1.544,6.615,9.3,9.3,0,0,0,4.41,4.263,18.852,18.852,0,0,0,8.158,1.47,22.186,22.186,0,0,0,8.526-1.47,29.659,29.659,0,0,0,6.762-3.969l-1.617-2.5a20.447,20.447,0,0,1-2.94,2.058,5.649,5.649,0,0,1-2.793.735,2.983,2.983,0,0,1-2.793-1.544,11.2,11.2,0,0,1-.882-5.218V170.844a61.708,61.708,0,0,0-1.029-12.2,15.716,15.716,0,0,0-4.557-8.379,19.126,19.126,0,0,0-8.526-4.925,42.769,42.769,0,0,0-11.466-1.4,50.315,50.315,0,0,0-12.5,1.47,29.92,29.92,0,0,0-9.408,3.969,19.879,19.879,0,0,0-5.733,4.924,11.98,11.98,0,0,0,.441,14.039q2.5,3.087,7.35,3.087a11.252,11.252,0,0,0,7.571-2.573,8.873,8.873,0,0,0,3.013-7.129,10.4,10.4,0,0,0-8.085-10.584,10.95,10.95,0,0,1,5.586-3.381,25.615,25.615,0,0,1,6.468-.882,13.708,13.708,0,0,1,6.836,1.543,9.853,9.853,0,0,1,4.116,4.557,18.448,18.448,0,0,1,1.4,7.718v10.731a6.343,6.343,0,0,1-2.94,5.439,29.665,29.665,0,0,1-7.5,3.6q-4.558,1.543-9.7,3.234a64.293,64.293,0,0,0-9.775,4.116,21.59,21.59,0,0,0-7.571,6.468,17.185,17.185,0,0,0-2.94,10.364,19.723,19.723,0,0,0,2.205,9.334,15.938,15.938,0,0,0,6.615,6.615,21.983,21.983,0,0,0,10.731,2.426A22.727,22.727,0,0,0,587.131,219.8Zm-10.878-8.012q-2.795-3.01-2.793-8.746a17.261,17.261,0,0,1,1.838-8.453A19.619,19.619,0,0,1,579.855,189a39.683,39.683,0,0,1,5.806-4.042q3.087-1.764,5.807-3.528a14.251,14.251,0,0,0,4.189-3.969v29.694a18.78,18.78,0,0,1-5.512,5.733A11.979,11.979,0,0,1,583.6,214.8,9.544,9.544,0,0,1,576.253,211.783Z"/>
  <path id="Trip" class="cls-2" d="M700.763,118.218q-7.794.148-15.582,0.147H656.81q-7.794,0-15.582-.147t-14.259-.294q0.585,6.763.808,13.156T628,140.856q0,3.384-.074,6.321a49.162,49.162,0,0,1-.367,5.145h3.381q1.908-11.758,4.851-18.449t7.791-9.628q4.851-2.939,12.5-2.94h4.851V205.1q0,6.03-1.176,8.967a6.471,6.471,0,0,1-4.557,3.895,41.067,41.067,0,0,1-9.7,1.1V222q4.113-.292,10.8-0.368t14.333-.073q7.348,0,14.406.073T696.5,222v-2.94a41.762,41.762,0,0,1-9.849-1.1,6.252,6.252,0,0,1-4.484-3.895,27.2,27.2,0,0,1-1.1-8.967v-83.79h4.7q7.789,0,12.568,2.94t7.718,9.628q2.939,6.692,5,18.449h3.381q-0.148-2.2-.294-5.145t-0.147-6.321q0-3.379.22-9.776t0.809-13.156Q708.551,118.072,700.763,118.218Zm61.812,28a24.005,24.005,0,0,0-6.909,5.807,32.2,32.2,0,0,0-4.63,7.644V144.384A65.1,65.1,0,0,1,742,145.927a99.3,99.3,0,0,1-10.363.515q-4.41,0-9.114-.441v3.087q5.733,0,7.864,3.16t2.132,9.776v46.305q0,6.174-2.279,8.379t-7.717,2.205V222q2.79-.144,8.452-0.368t11.393-.22q6.907,0,13.3.22T765.442,222v-3.087q-7.056,0-10.731-2.426t-3.675-9.628V170.55a24.544,24.544,0,0,1,1.1-7.056,27.537,27.537,0,0,1,3.161-6.909,20.42,20.42,0,0,1,5-5.439,12.315,12.315,0,0,1,6.468-2.5,5.784,5.784,0,0,1,3.675.588,15.27,15.27,0,0,0-4.19,3.969,10.139,10.139,0,0,0-1.837,6.174,8,8,0,0,0,2.793,6.468,10.791,10.791,0,0,0,7.2,2.352,9.622,9.622,0,0,0,7.57-3.234,11.739,11.739,0,0,0,2.867-8.085,13.668,13.668,0,0,0-1.47-6.174,12.161,12.161,0,0,0-4.484-4.851,13.907,13.907,0,0,0-7.57-1.911A17.525,17.525,0,0,0,762.575,146.221ZM799.4,111.456a10.667,10.667,0,0,0,0,15.582,14.263,14.263,0,0,0,17.346,0,10.667,10.667,0,0,0,0-15.582A14.263,14.263,0,0,0,799.4,111.456Zm9.922,34.471a99.3,99.3,0,0,1-10.363.515q-4.41,0-9.114-.441v3.087q5.733,0,7.864,3.16t2.132,9.923v46.158q0,6.174-2.279,8.379t-7.717,2.205V222q2.79-.144,8.379-0.368t11.025-.22q5.584,0,11.025.22T828.358,222v-3.087q-5.44,0-7.718-2.205t-2.278-8.379V144.384A65.1,65.1,0,0,1,809.321,145.927Zm44.321,0.147a98.683,98.683,0,0,1-10.437.515q-4.41,0-9.114-.441v3.087q5.877,0,7.938,3.16t2.058,9.776v73.647q0,5.584-2.058,7.644t-7.056,2.058v3.087q2.646-.148,7.644-0.368t10-.22q7.2,0,13.6.22t9.923,0.368V245.52q-6.322,0-9.923-2.279t-3.6-8.893V144.531A65.25,65.25,0,0,1,853.642,146.074Zm16.317,3.161q-6.615,5.292-8.967,14.994l1.029,4.116q1.026-9.112,5.806-13.892a14.913,14.913,0,0,1,10.8-4.777,10.34,10.34,0,0,1,7.644,3.307q3.231,3.307,4.851,10.658a94.646,94.646,0,0,1,1.617,19.551,99.027,99.027,0,0,1-1.691,19.4q-1.692,8.379-5.806,13.009t-11.172,4.631a13.672,13.672,0,0,1-7.35-1.911,13.921,13.921,0,0,1-4.851-5l-1.47,2.058a15.437,15.437,0,0,0,7.056,6.321,24.983,24.983,0,0,0,11.025,2.352,32.424,32.424,0,0,0,14.406-3.087,29.4,29.4,0,0,0,10.657-8.82,40.208,40.208,0,0,0,6.542-13.745,66.655,66.655,0,0,0,2.2-17.713q0-12.2-3.455-20.286a27.746,27.746,0,0,0-9.481-12.275,23.387,23.387,0,0,0-13.671-4.189A24.4,24.4,0,0,0,869.959,149.235Z"/>
</svg>
