<svg id="Group_1_copy" data-name="Group 1 copy" xmlns="http://www.w3.org/2000/svg" width="912" height="301" viewBox="0 0 912 301">
  <defs>
    <style>
      .cls-1 {
        fill: #3dd1d5;
      }

      .cls-1, .cls-2 {
        fill-rule: evenodd;
      }

      .cls-2 {
        fill: #fff;
      }
    </style>
  </defs>
  <path class="cls-1" d="M223.867,73.234C162.55,48.732,131.95,98.61,131.95,98.61s-30.6-49.877-91.917-25.376c-26.4,10.547-42.56,38.285-39.7,73.3a22,22,0,0,0,3.309,10.095l0.034,0.054c21.839,33.954,103.184,20.6,181.691-29.825a364.005,364.005,0,0,0,55.39-43.386A59.93,59.93,0,0,0,223.867,73.234Z"/>
  <path class="cls-2" d="M277.255,40.85c-13.143,33.98-50.87,75.347-102.932,108.806-60.634,38.968-122.954,55.8-158.245,45.788l0.2,0.372a56.1,56.1,0,0,0,68.467,26.233,356.9,356.9,0,0,0,70.894-35.533c40.948-26.316,73.025-57.525,91.254-86.185-13.143,33.981-50.871,75.348-102.933,108.807C114.9,227.814,85.453,241.4,58.777,249.391c19.109,17.774,43.455,35.264,73.815,51.61,132.016-71.079,150.45-163.789,118.024-207.439C269.41,71.25,277.255,40.85,277.255,40.85Z"/>
  <path class="cls-1" d="M298,0L262.935,39.59l8.238-2.045,18.72-26.706L273.75,36.484l7.556,6.506-3.81-8.26L294.637,5.666,286.046,30.61l11.393-4.37Z"/>
  <path id="Shape_4_copy" data-name="Shape 4 copy" class="cls-1" d="M299,0L263.935,39.59l8.238-2.045,18.72-26.706L274.75,36.484l7.556,6.506-3.81-8.26L295.637,5.666,287.046,30.61l11.393-4.37Z"/>
  <path id="Shape_4_copy_2" data-name="Shape 4 copy 2" class="cls-1" d="M300,0L264.935,39.59l8.238-2.045,18.72-26.706L275.75,36.484l7.556,6.506-3.81-8.26L296.637,5.666,288.046,30.61l11.393-4.37Z"/>
  <path id="Shape_4_copy_3" data-name="Shape 4 copy 3" class="cls-1" d="M301,0L265.935,39.59l8.238-2.045,18.72-26.706L276.75,36.484l7.556,6.506-3.81-8.26L297.637,5.666,289.046,30.61l11.393-4.37Z"/>
  <path id="Ciya" class="cls-1" d="M360.017,122.775a48.259,48.259,0,0,0-17.787,19.257q-6.471,12.348-6.468,28.812,0,16.758,6.247,28.665a43.479,43.479,0,0,0,17.567,18.228q11.317,6.323,26.313,6.321,9.553,0,15.656-2.866a76.99,76.99,0,0,0,11.539-6.689q3.231-2.056,4.631-.441T419.7,222h3.381q-0.3-5.733-.441-14.186t-0.147-22.27h-3.381a95.319,95.319,0,0,1-2.793,16.244A22.387,22.387,0,0,1,409.7,212.3a21.912,21.912,0,0,1-9.408,6.321,32.921,32.921,0,0,1-11.172,2.058,23.881,23.881,0,0,1-13.45-3.822,30.525,30.525,0,0,1-9.7-10.657,56.148,56.148,0,0,1-5.881-16.024,94.294,94.294,0,0,1-1.984-19.918,100.966,100.966,0,0,1,1.838-19.7,58.084,58.084,0,0,1,5.585-16.244,31.652,31.652,0,0,1,9.409-11.025,22.287,22.287,0,0,1,13.3-4.042,31.751,31.751,0,0,1,11.54,2.132,24.457,24.457,0,0,1,9.481,6.541,25.5,25.5,0,0,1,5.072,6.174,28.556,28.556,0,0,1,2.866,7.718q1.026,4.485,1.911,11.1h3.381q0-13.23.147-21.315t0.441-13.671H419.7q-0.59,6.322-2.132,8.012t-4.483-.515a54.794,54.794,0,0,0-11.1-6.689q-6.249-2.865-15.949-2.866A48.936,48.936,0,0,0,360.017,122.775Zm85.113-11.319a10.667,10.667,0,0,0,0,15.582,14.263,14.263,0,0,0,17.346,0,10.667,10.667,0,0,0,0-15.582A14.263,14.263,0,0,0,445.13,111.456Zm9.922,34.471a99.3,99.3,0,0,1-10.363.515q-4.41,0-9.114-.441v3.087q5.733,0,7.864,3.16t2.132,9.923v46.158q0,6.174-2.279,8.379t-7.717,2.205V222q2.79-.144,8.379-0.368t11.025-.22q5.584,0,11.025.22T474.089,222v-3.087q-5.44,0-7.718-2.205t-2.278-8.379V144.384A65.13,65.13,0,0,1,455.052,145.927Zm90.846,0.515q-3.015.148-6.1,0.147-2.061,0-4.263-.073t-4.557-.221q-2.353-.144-4.7-0.294v3.087a13.4,13.4,0,0,1,7.644,2.5,9.01,9.01,0,0,1,3.234,6.468q0.441,4.266-2.058,11.172l-12.936,34.986,1.176-.588L504.959,158.79q-1.912-4.851-1.1-6.836a4.113,4.113,0,0,1,3.455-2.425,36.923,36.923,0,0,1,6.027-.441V146q-4.41.3-9.482,0.588t-10.51.294q-4.707,0-9.335-.221T475.118,146v3.087a9.381,9.381,0,0,1,4.116,1.323q2.5,1.323,5.292,6.909l30.282,70.266,4.557-6.909L541.12,161q2.205-6.318,4.631-8.82a10.248,10.248,0,0,1,5.218-3.087V146Q548.91,146.3,545.9,146.442Zm-29.914,74.235-5.292,14.553q-2.061,6.026-5.439,8.82a11.7,11.7,0,0,1-7.644,2.793,10.563,10.563,0,0,1-1.1-.073q-0.661-.077-1.4-0.221a10.188,10.188,0,0,0,4.557-3.381,8.25,8.25,0,0,0,1.617-5q0-4.266-2.72-6.394a12.727,12.727,0,0,0-14.626.367,8.439,8.439,0,0,0-2.793,6.615,8.839,8.839,0,0,0,2.131,6.174,13.259,13.259,0,0,0,5.292,3.528,18.623,18.623,0,0,0,6.542,1.176,25.947,25.947,0,0,0,6.982-.882,13.7,13.7,0,0,0,5.366-2.793,16.713,16.713,0,0,0,3.454-4.19,35.845,35.845,0,0,0,2.867-6.247l5.586-14.847h-3.381Zm71.147-.882a26.752,26.752,0,0,0,8.673-9.114,15.979,15.979,0,0,0,1.544,6.615,9.3,9.3,0,0,0,4.41,4.263,18.852,18.852,0,0,0,8.158,1.47,22.186,22.186,0,0,0,8.526-1.47,29.659,29.659,0,0,0,6.762-3.969l-1.617-2.5a20.447,20.447,0,0,1-2.94,2.058,5.649,5.649,0,0,1-2.793.735,2.982,2.982,0,0,1-2.793-1.544,11.2,11.2,0,0,1-.882-5.218V170.844a61.708,61.708,0,0,0-1.029-12.2,15.716,15.716,0,0,0-4.557-8.379,19.115,19.115,0,0,0-8.526-4.924,42.727,42.727,0,0,0-11.466-1.4,50.315,50.315,0,0,0-12.5,1.47,29.92,29.92,0,0,0-9.408,3.969,19.866,19.866,0,0,0-5.733,4.925,11.979,11.979,0,0,0,.441,14.038q2.5,3.087,7.35,3.087a11.256,11.256,0,0,0,7.571-2.572,8.876,8.876,0,0,0,3.013-7.13,10.4,10.4,0,0,0-8.085-10.584,10.95,10.95,0,0,1,5.586-3.381,25.615,25.615,0,0,1,6.468-.882,13.708,13.708,0,0,1,6.836,1.543,9.853,9.853,0,0,1,4.116,4.557,18.448,18.448,0,0,1,1.4,7.718v10.731a6.343,6.343,0,0,1-2.94,5.439,29.631,29.631,0,0,1-7.5,3.6q-4.558,1.543-9.7,3.235a64.29,64.29,0,0,0-9.775,4.115,21.583,21.583,0,0,0-7.571,6.469,17.18,17.18,0,0,0-2.94,10.363,19.72,19.72,0,0,0,2.205,9.334,15.941,15.941,0,0,0,6.615,6.616,21.994,21.994,0,0,0,10.731,2.425A22.727,22.727,0,0,0,587.131,219.8Zm-10.878-8.012q-2.795-3.01-2.793-8.746a17.261,17.261,0,0,1,1.838-8.453A19.6,19.6,0,0,1,579.855,189a39.612,39.612,0,0,1,5.806-4.043q3.087-1.764,5.807-3.528a14.251,14.251,0,0,0,4.189-3.969v29.694a18.78,18.78,0,0,1-5.512,5.733A11.979,11.979,0,0,1,583.6,214.8,9.544,9.544,0,0,1,576.253,211.783Z"/>
  <path id="Trip" class="cls-2" d="M700.763,118.218q-7.794.148-15.582,0.147H656.81q-7.794,0-15.582-.147t-14.259-.294q0.585,6.763.809,13.156t0.22,9.776q0,3.384-.074,6.321a49.162,49.162,0,0,1-.367,5.145h3.381q1.908-11.758,4.851-18.449t7.791-9.628q4.851-2.939,12.5-2.94h4.851V205.1q0,6.03-1.176,8.967a6.471,6.471,0,0,1-4.557,3.895,41.067,41.067,0,0,1-9.7,1.1V222q4.113-.292,10.805-0.368t14.332-.073q7.348,0,14.406.073T696.5,222v-2.94a41.762,41.762,0,0,1-9.849-1.1,6.254,6.254,0,0,1-4.484-3.895,27.2,27.2,0,0,1-1.1-8.967v-83.79h4.7q7.789,0,12.569,2.94t7.717,9.628q2.939,6.692,5,18.449h3.381q-0.148-2.2-.294-5.145t-0.147-6.321q0-3.379.221-9.776t0.808-13.156Q708.551,118.072,700.763,118.218Zm61.812,28a24.005,24.005,0,0,0-6.909,5.807,32.2,32.2,0,0,0-4.63,7.644V144.384A65.1,65.1,0,0,1,742,145.927a99.3,99.3,0,0,1-10.363.515q-4.41,0-9.114-.441v3.087q5.733,0,7.864,3.16t2.132,9.776v46.305q0,6.174-2.279,8.379t-7.717,2.205V222q2.79-.144,8.452-0.368t11.393-.22q6.907,0,13.3.22T765.442,222v-3.087q-7.056,0-10.731-2.425t-3.675-9.629V170.55a24.544,24.544,0,0,1,1.1-7.056,27.537,27.537,0,0,1,3.161-6.909,20.42,20.42,0,0,1,5-5.439,12.315,12.315,0,0,1,6.468-2.5,5.784,5.784,0,0,1,3.675.588,15.27,15.27,0,0,0-4.19,3.969,10.139,10.139,0,0,0-1.837,6.174,8,8,0,0,0,2.793,6.468,10.791,10.791,0,0,0,7.2,2.352,9.622,9.622,0,0,0,7.57-3.234,11.739,11.739,0,0,0,2.867-8.085,13.668,13.668,0,0,0-1.47-6.174,12.161,12.161,0,0,0-4.484-4.851,13.907,13.907,0,0,0-7.57-1.911A17.525,17.525,0,0,0,762.575,146.221ZM799.4,111.456a10.667,10.667,0,0,0,0,15.582,14.263,14.263,0,0,0,17.346,0,10.667,10.667,0,0,0,0-15.582A14.263,14.263,0,0,0,799.4,111.456Zm9.922,34.471a99.3,99.3,0,0,1-10.363.515q-4.41,0-9.114-.441v3.087q5.733,0,7.864,3.16t2.132,9.923v46.158q0,6.174-2.279,8.379t-7.717,2.205V222q2.79-.144,8.379-0.368t11.025-.22q5.584,0,11.025.22T828.358,222v-3.087q-5.44,0-7.718-2.205t-2.278-8.379V144.384A65.1,65.1,0,0,1,809.321,145.927Zm44.321,0.148a98.962,98.962,0,0,1-10.437.514q-4.41,0-9.114-.441v3.087q5.877,0,7.938,3.161t2.058,9.775v73.647q0,5.584-2.058,7.644t-7.056,2.058v3.087q2.646-.148,7.644-0.367t10-.221q7.2,0,13.6.221t9.923,0.367V245.52q-6.322,0-9.923-2.278t-3.6-8.894V144.531A65.4,65.4,0,0,1,853.642,146.075Zm16.317,3.16q-6.615,5.292-8.967,14.994l1.029,4.116q1.026-9.112,5.806-13.892a14.913,14.913,0,0,1,10.8-4.777,10.344,10.344,0,0,1,7.644,3.307q3.231,3.307,4.851,10.658a94.646,94.646,0,0,1,1.617,19.551,99.027,99.027,0,0,1-1.691,19.4q-1.692,8.379-5.806,13.01t-11.172,4.63a13.672,13.672,0,0,1-7.35-1.911,13.921,13.921,0,0,1-4.851-5l-1.47,2.058a15.437,15.437,0,0,0,7.056,6.321,24.983,24.983,0,0,0,11.025,2.352,32.424,32.424,0,0,0,14.406-3.087,29.4,29.4,0,0,0,10.657-8.82,40.208,40.208,0,0,0,6.542-13.745,66.655,66.655,0,0,0,2.2-17.713q0-12.2-3.455-20.286a27.746,27.746,0,0,0-9.481-12.275,23.394,23.394,0,0,0-13.671-4.189A24.4,24.4,0,0,0,869.959,149.235Z"/>
</svg>
