<?xml version="1.0" encoding="utf-8"?>
<!-- Svg Vector Icons : http://www.onlinewebfonts.com/icon -->
<!DOCTYPE svg PUBLIC "-//W3C//DTD SVG 1.1//EN" "http://www.w3.org/Graphics/SVG/1.1/DTD/svg11.dtd">
<svg version="1.1" xmlns="http://www.w3.org/2000/svg" xmlns:xlink="http://www.w3.org/1999/xlink" x="0px" y="0px" viewBox="0 0 1000 1000" enable-background="new 0 0 1000 1000" xml:space="preserve">
<metadata> Svg Vector Icons : http://www.onlinewebfonts.com/icon </metadata>
<g><path d="M389.9,143.6c145.1,0,263.1,118,263.1,263c0,49-14,97.1-40.2,139.1l-23.9,38l-33.6,27.2c-47.4,38.5-104.6,58.7-165.4,58.7c-145,0-263-117.9-263-263C126.9,261.6,244.9,143.6,389.9,143.6L389.9,143.6z M389.9,26.7C180.1,26.7,10,196.8,10,406.6c0,209.8,170.1,379.9,379.9,379.9c90.7,0,173.8-31.8,239.1-84.8c3,5.3,5.7,10.7,10.1,15.2l236.7,236.7c13,13,30.1,19.6,47.3,19.6c17.1,0,34.3-6.5,47.3-19.7c26.1-26.2,26.1-68.5,0-94.6L733.7,622.3c-6.4-6.4-13.9-11.3-22-14.6c36.6-58.3,58.1-127.1,58.1-201.1C769.8,196.8,599.7,26.7,389.9,26.7L389.9,26.7z"/></g>
</svg>