<?xml version="1.0" encoding="iso-8859-1"?>
<!-- Generator: Adobe Illustrator 19.0.0, SVG Export Plug-In . SVG Version: 6.00 Build 0)  -->
<svg version="1.1" id="Layer_1" xmlns="http://www.w3.org/2000/svg" xmlns:xlink="http://www.w3.org/1999/xlink" x="0px" y="0px"
	 viewBox="0 0 511.999 511.999" style="enable-background:new 0 0 511.999 511.999;" xml:space="preserve">
<g>
	<g>
		<path d="M93.888,152.788H30.023c-4.522,0-8.188,3.666-8.188,8.188s3.666,8.188,8.188,8.188h63.864
			c4.522,0,8.188-3.666,8.188-8.188S98.41,152.788,93.888,152.788z"/>
	</g>
</g>
<g>
	<g>
		<path d="M99.346,267.417H40.941c-4.522,0-8.188,3.666-8.188,8.188s3.666,8.188,8.188,8.188h58.406
			c4.522,0,8.188-3.666,8.188-8.188S103.868,267.417,99.346,267.417z"/>
	</g>
</g>
<g>
	<g>
		<path d="M77.511,218.29H8.188c-4.522,0-8.188,3.666-8.188,8.188c0,4.522,3.666,8.188,8.188,8.188h69.323
			c4.522,0,8.188-3.666,8.188-8.188C85.699,221.956,82.033,218.29,77.511,218.29z"/>
	</g>
</g>
<g>
	<g>
		<path d="M77.511,332.919h-6.715c-4.522,0-8.188,3.666-8.188,8.188s3.666,8.188,8.188,8.188h6.715c4.522,0,8.188-3.666,8.188-8.188
			S82.033,332.919,77.511,332.919z"/>
	</g>
</g>
<g>
	<g>
		<path d="M43.502,332.919H8.188c-4.522,0-8.188,3.666-8.188,8.188s3.666,8.188,8.188,8.188h35.314c4.522,0,8.188-3.666,8.188-8.188
			S48.024,332.919,43.502,332.919z"/>
	</g>
</g>
<g>
	<g>
		<path d="M427.771,126.081h-69.403v-14.739c0-4.522-3.666-8.188-8.188-8.188h-126.93c-4.522,0-8.188,3.666-8.188,8.188
			c0,4.522,3.666,8.188,8.188,8.188h118.741v179.341c0,4.522,3.666,8.188,8.188,8.188c4.522,0,8.188-3.666,8.188-8.188V142.457
			h69.403c37.414,0,67.853,30.434,67.853,67.842v138.5h-20.818c-3.938-24.717-25.397-43.67-51.206-43.67
			c-25.808,0-47.267,18.953-51.205,43.67h-14.027v-11.716c0-4.522-3.666-8.188-8.188-8.188c-4.522,0-8.188,3.666-8.188,8.188v11.716
			h-86.901c-3.938-24.717-25.397-43.67-51.205-43.67s-47.268,18.953-51.206,43.67H135.65V119.53h54.848
			c4.522,0,8.188-3.666,8.188-8.188s-3.666-8.188-8.188-8.188h-63.036c-4.522,0-8.188,3.666-8.188,8.188v245.645
			c0,4.522,3.666,8.188,8.188,8.188h25.217c3.938,24.717,25.398,43.67,51.206,43.67s47.268-18.953,51.205-43.67h117.304
			c3.938,24.717,25.397,43.67,51.205,43.67s47.267-18.953,51.205-43.67h29.006c4.522,0,8.188-3.666,8.188-8.188V210.299
			C512,163.861,474.216,126.081,427.771,126.081z M203.885,392.469c-19.564,0-35.482-15.917-35.482-35.482
			c0-19.565,15.918-35.482,35.482-35.482c19.564,0,35.482,15.917,35.482,35.482C239.367,376.552,223.449,392.469,203.885,392.469z
			 M423.601,392.469c-19.562,0-35.478-15.913-35.482-35.475c0-0.002,0-0.004,0-0.007s0-0.004,0-0.007
			c0.004-19.562,15.92-35.475,35.482-35.475c19.564,0,35.482,15.917,35.482,35.482C459.083,376.552,443.165,392.469,423.601,392.469
			z"/>
	</g>
</g>
<g>
	<g>
		<path d="M427.771,158.833h-44.838c-4.522,0-8.188,3.666-8.188,8.188v76.969c0,4.522,3.666,8.188,8.188,8.188h88.126
			c4.522,0,8.188-3.666,8.188-8.188v-33.692C479.247,181.921,456.156,158.833,427.771,158.833z M462.871,235.802h-71.75V175.21
			h36.65c19.355,0,35.1,15.741,35.1,35.089V235.802z"/>
	</g>
</g>
<g>
	<g>
		<path d="M203.885,335.877c-11.64,0-21.11,9.47-21.11,21.11c0,11.64,9.47,21.11,21.11,21.11c11.64,0,21.11-9.47,21.11-21.11
			C224.995,345.346,215.525,335.877,203.885,335.877z M203.885,361.721c-2.61,0-4.734-2.123-4.734-4.734s2.123-4.734,4.734-4.734
			c2.61,0,4.734,2.123,4.734,4.734S206.495,361.721,203.885,361.721z"/>
	</g>
</g>
<g>
	<g>
		<path d="M423.601,335.877c-11.64,0-21.11,9.47-21.11,21.11c0,11.64,9.47,21.11,21.11,21.11c11.64,0,21.11-9.47,21.11-21.11
			C444.711,345.346,435.241,335.877,423.601,335.877z M423.601,361.721c-2.61,0-4.734-2.123-4.734-4.734s2.123-4.734,4.734-4.734
			c2.61,0,4.734,2.123,4.734,4.734S426.21,361.721,423.601,361.721z"/>
	</g>
</g>
<g>
	<g>
		<path d="M471.059,274.559c-4.522,0-8.188,3.666-8.188,8.188v20.743c0,4.522,3.666,8.188,8.188,8.188
			c4.522,0,8.188-3.666,8.188-8.188v-20.743C479.247,278.225,475.581,274.559,471.059,274.559z"/>
	</g>
</g>
<g>
</g>
<g>
</g>
<g>
</g>
<g>
</g>
<g>
</g>
<g>
</g>
<g>
</g>
<g>
</g>
<g>
</g>
<g>
</g>
<g>
</g>
<g>
</g>
<g>
</g>
<g>
</g>
<g>
</g>
</svg>
