<?xml version="1.0" encoding="utf-8"?>
<!-- Svg Vector Icons : http://www.onlinewebfonts.com/icon -->
<!DOCTYPE svg PUBLIC "-//W3C//DTD SVG 1.1//EN" "http://www.w3.org/Graphics/SVG/1.1/DTD/svg11.dtd">
<svg version="1.1" xmlns="http://www.w3.org/2000/svg" xmlns:xlink="http://www.w3.org/1999/xlink" x="0px" y="0px" viewBox="0 0 1000 1000" enable-background="new 0 0 1000 1000" xml:space="preserve">
<metadata> Svg Vector Icons : http://www.onlinewebfonts.com/icon </metadata>
<g><g transform="translate(0.000000,511.000000) scale(0.100000,-0.100000)"><path d="M4879.5,3953.2c-49.4-11.9-112.6-41.5-138.3-63.2c-25.7-21.7-810.1-804.2-1740.7-1738.7L1305.2,452V311.7V173.4L1044.4-65.6L781.7-304.7l-59.3,57.3c-73.1,67.2-116.6,90.9-207.5,104.7c-142.3,25.7-284.5-37.5-369.5-164C100-369.9,100-381.8,100-1000.2v-630.3h355.6h355.6v480.1v480.1l229.2,205.5c126.4,114.6,237.1,211.4,247,213.4c9.9,4,17.8-294.4,17.8-685.6v-693.5h1173.6h1171.7l11.8,359.6C3694-229.6,4006.2,519.2,4508,768.2c193.6,94.8,418.9,128.4,661.9,94.8c375.4-49.4,650-264.8,849.6-661.9c195.6-387.3,324-1015.6,324-1588.5v-243h1175.6h1175.6V-937c0,401.1,7.9,689.6,17.8,685.6c9.9-2,120.5-98.8,247-213.4l229.2-207.5v-478.1v-480.1h355.6H9900v624.4c0,420.8-7.9,636.2-21.7,665.8c-88.9,173.9-328,252.9-501.9,166c-21.7-9.9-65.2-43.5-98.8-73.1l-59.3-57.3L8961.5-69.6l-256.9,233.1l-9.9,148.2l-9.9,148.2l-1713,1720.9C5893.1,3263.6,5233.1,3913.6,5193.6,3929.5C5090.9,3972.9,4978.3,3980.8,4879.5,3953.2z M6722.9,2010.9L8398.4,335.5v-833.8v-835.8h-875.3h-875.3l-23.7,282.5c-75.1,901-347.8,1596.5-760.7,1930.4c-254.9,205.5-486.1,280.6-869.4,278.6c-272.7-2-424.8-29.6-600.7-114.6C3818.5,772.1,3437.1-30.1,3368-1114.8l-13.8-219.3h-875.3h-877.3v835.8l2,833.8l1667.6,1675.5c1406.8,1410.7,1677.5,1673.5,1722.9,1673.5C5041.5,3684.4,5312.2,3421.7,6722.9,2010.9z"/><path d="M4921,511.3c0-262.8-116.6-648.1-280.6-926.7c-94.8-160-160-250.9-308.2-414.9c-57.3-65.2-132.4-175.8-167.9-247c-53.3-108.7-63.2-148.2-63.2-276.6c0-124.5,9.9-167.9,61.3-276.6c73.1-154.1,199.6-298.3,379.4-430.7c130.4-98.8,434.7-272.7,448.5-258.8c4,3.9-5.9,57.3-21.7,116.6c-37.5,144.2-35.6,432.7,4,590.8c17.8,71.1,98.8,286.5,179.8,476.2c167.9,395.2,213.4,563.1,195.6,750.8c-21.7,249-124.5,547.3-280.5,814C4940.7,643.7,4921,655.5,4921,511.3z"/><path d="M5555.2-518.1c-3.9-272.7-65.2-505.8-219.3-829.8c-53.3-110.6-110.6-252.9-128.4-316.1c-37.5-144.2-63.2-509.8-35.6-525.6c31.6-19.8,298.3,175.8,452.5,331.9c92.9,92.9,162,187.7,205.5,272.7c61.2,124.5,63.2,140.3,55.3,294.4c-11.8,195.6-75.1,391.2-223.3,697.4l-104.7,217.3L5555.2-518.1z"/><path d="M3812.5-2132.3c-207.5-73.1-335.9-288.5-296.4-495.9c19.8-100.8,51.4-162,126.5-241.1l59.3-63.2l-49.4-41.5c-77.1-59.3-140.3-205.5-140.3-324c0-185.7,96.8-337.9,262.8-412.9c154.1-69.2,239.1-55.3,756.7,130.4l468.3,167.9l470.2-167.9c515.7-185.7,600.7-199.6,754.8-130.4c166,75.1,262.8,227.2,260.8,412.9c0,120.5-37.5,213.4-118.5,308.2l-61.3,69.2l51.4,47.4c108.7,100.8,162,333.9,106.7,478.1c-63.2,164-247,290.4-418.8,290.4c-69.2,0-225.3-47.4-569.1-169.9L5000-2446.5l-476.2,171.9C4029.9-2096.8,3952.8-2082.9,3812.5-2132.3z M4948.6-2729c1242.8-446.5,1173.6-418.9,1217.1-468.3c88.9-92.9,13.8-270.7-112.6-270.7c-29.6,0-531.5,169.9-1112.4,377.4c-1120.3,401.1-1146,412.9-1146,533.5c0,67.2,92.9,175.8,150.2,175.8C3962.7-2381.3,4415.2-2537.4,4948.6-2729z M6147.9-2438.6c112.6-112.6,55.3-247-132.4-306.3l-98.8-31.6l-217.3,79c-118.5,43.5-229.2,85-245,90.9c-33.6,11.8,515.7,221.3,588.8,223.3C6070.9-2381.3,6114.4-2407,6147.9-2438.6z M4336.1-3173.6c126.5-45.5,227.2-86.9,223.3-90.9c-25.7-23.7-561.1-203.5-610.5-203.5c-118.5,0-199.6,166-126.4,260.8c31.6,41.5,183.8,112.6,241.1,114.6C4087.2-3092.6,4209.7-3130.1,4336.1-3173.6z"/></g></g>
</svg>