<?xml version="1.0" encoding="iso-8859-1"?>
<!-- Generator: Adobe Illustrator 16.0.0, SVG Export Plug-In . SVG Version: 6.00 Build 0)  -->
<!DOCTYPE svg PUBLIC "-//W3C//DTD SVG 1.1//EN" "http://www.w3.org/Graphics/SVG/1.1/DTD/svg11.dtd">
<svg version="1.1" id="Capa_1" xmlns="http://www.w3.org/2000/svg" xmlns:xlink="http://www.w3.org/1999/xlink" x="0px" y="0px"
	 width="475.491px" height="475.491px" viewBox="0 0 475.491 475.491" style="enable-background:new 0 0 475.491 475.491;"
	 xml:space="preserve">
<g>
	<g>
		<path d="M249.282,331.583c-2.146-3.855-6.165-6.293-10.575-6.416c-4.411-0.096-8.558,2.09-10.914,5.817l-70.754,111.987
			c-2.433,3.852-2.579,8.723-0.38,12.711c2.199,3.988,6.393,6.467,10.948,6.467H300.71c4.431,0,8.531-2.346,10.776-6.166
			c2.245-3.818,2.3-8.543,0.145-12.414L249.282,331.583z M190.29,437.149l47.392-75.011l41.762,75.011H190.29z"/>
		<path d="M475.023,226.141c-1.867-6.647-8.771-10.521-15.414-8.654l-30.833,8.658l6.001-23.396
			c0.908-3.539,0.222-7.299-1.878-10.289l-68.802-97.971c-1.519-2.161-3.612-3.696-5.938-4.546
			c2.968-7.346,4.618-15.359,4.618-23.757c0-35.087-28.546-63.633-63.633-63.633c-35.088,0-63.632,28.546-63.632,63.633
			c0,31.17,22.533,57.159,52.161,62.579c-0.57,2.479-0.397,5.144,0.655,7.645l29.557,70.213l-15.069,55.051l-149.044,42.637
			l-29.292-41.997l-9.442-104.808c-0.264-2.935-1.539-5.568-3.469-7.562c17.255-11.395,28.669-30.948,28.669-53.128
			c0-35.088-28.546-63.634-63.633-63.634c-35.087,0-63.632,28.546-63.632,63.634c0,18.445,7.897,35.076,20.478,46.709
			c-1.996,1.751-3.449,4.143-4.01,6.923L1.9,286.895c-0.763,3.777,0.261,7.698,2.774,10.621l35.436,41.223L9.013,347.78
			c-6.629,1.928-10.44,8.864-8.513,15.493c1.589,5.464,6.58,9.013,11.997,9.013c1.156,0,2.331-0.16,3.496-0.5l42.022-12.219
			l4.677,5.44L31.799,427.79c-2.381,4.84-1.39,10.66,2.459,14.439l27.641,27.131c2.339,2.295,5.483,3.578,8.756,3.578
			c0.06,0,0.119,0,0.178,0c3.336-0.049,6.515-1.428,8.829-3.832l102.497-106.49c4.138-4.3,4.66-10.925,1.246-15.82l-14.514-20.809
			l126.203-36.103l-9.494,34.68c-1.492,5.454,0.861,11.231,5.742,14.089l112.817,66.037c1.971,1.152,4.149,1.713,6.309,1.713
			c3.479,0,6.909-1.449,9.353-4.199l28.597-32.201c3.959-4.457,4.219-11.092,0.62-15.846l-39.656-52.377l12.224-47.652
			l44.768-12.572C473.014,239.688,476.889,232.787,475.023,226.141z M76.601,58.181c21.302,0,38.633,17.331,38.633,38.634
			c0,21.302-17.331,38.632-38.633,38.632c-21.302,0-38.632-17.33-38.632-38.632C37.969,75.512,55.3,58.181,76.601,58.181z
			 M70.4,442.676l-12.183-11.959l30.548-62.08c2.21-4.492,1.527-9.87-1.737-13.667l-59.417-69.118l24.106-119.438l39.35,3.688
			l8.807,97.762c0.195,2.166,0.953,4.243,2.197,6.028l36.273,52.006c0.023,0.034,0.047,0.068,0.072,0.104l18.605,26.675
			L70.4,442.676z M260.511,66.186c0-21.302,17.331-38.633,38.633-38.633s38.633,17.331,38.633,38.633
			c0,21.304-17.331,38.635-38.633,38.635S260.511,87.49,260.511,66.186z M422.911,361.071l-14.977,16.862l-95.693-56.015
			l30.896-112.862c0.739-2.7,0.551-5.57-0.535-8.15l-26.876-63.845l34.366-19.015l59.038,84.068l-25.468,99.296
			c-0.947,3.69-0.158,7.611,2.142,10.649L422.911,361.071z"/>
	</g>
</g>
<g>
</g>
<g>
</g>
<g>
</g>
<g>
</g>
<g>
</g>
<g>
</g>
<g>
</g>
<g>
</g>
<g>
</g>
<g>
</g>
<g>
</g>
<g>
</g>
<g>
</g>
<g>
</g>
<g>
</g>
</svg>
