<?xml version="1.0" encoding="iso-8859-1"?>
<!-- Generator: Adobe Illustrator 19.0.0, SVG Export Plug-In . SVG Version: 6.00 Build 0)  -->
<svg version="1.1" id="Layer_1" xmlns="http://www.w3.org/2000/svg" xmlns:xlink="http://www.w3.org/1999/xlink" x="0px" y="0px"
	 viewBox="0 0 480 480" style="enable-background:new 0 0 480 480;" xml:space="preserve">
<g id="XMLID_1765_">
	<g>
		<g>
			<path d="M309.712,214.847c-15.229,0-29.784,6.205-40.389,16.766c-10.605-10.561-25.16-16.766-40.389-16.766
				c-27.804,0-51.031,19.967-56.096,46.315c-5.41-2.462-11.348-3.801-17.431-3.801c-23.292,0-42.241,18.949-42.241,42.241
				c0,11.757,5.181,22.817,14.213,30.346l41.116,34.262c4.076,3.396,9.242,5.268,14.546,5.268c5.304,0,10.469-1.87,14.546-5.267
				l27.532-22.943l25.9,21.583c5.129,4.273,11.629,6.627,18.304,6.627s13.176-2.354,18.305-6.627l60.094-50.078
				c12.146-10.122,19.112-24.995,19.112-40.805C366.833,240.471,341.209,214.847,309.712,214.847z M225.9,314.583l-7.032,5.86
				c-0.096,0.077-0.19,0.155-0.283,0.236l-33.8,28.166c-0.978,0.814-2.507,0.814-3.485,0l-41.116-34.262
				c-4.459-3.717-7.017-9.178-7.017-14.981c0-12.264,9.977-22.241,22.241-22.241c7.87,0,14.999,4.034,19.069,10.791
				c1.809,3.003,5.06,4.84,8.566,4.84c3.453,0,6.657-1.78,8.482-4.703c0.126-0.19,0.247-0.386,0.36-0.584
				c4.111-6.487,11.098-10.344,18.792-10.344c12.263,0,22.24,9.978,22.24,22.241C232.917,305.407,230.359,310.867,225.9,314.583z
				 M334.917,297.408l-60.093,50.077c-1.542,1.285-3.496,1.992-5.501,1.992s-3.959-0.708-5.501-1.992l-23.15-19.291
				c7.813-7.438,12.245-17.717,12.245-28.592c0-23.292-18.949-42.241-42.241-42.241c-6.008,0-11.875,1.307-17.231,3.711
				c4.667-15.168,18.812-26.226,35.49-26.226c13.135,0,25.032,6.73,31.823,18.004c1.81,3.003,5.06,4.84,8.566,4.84
				c3.506,0,6.756-1.837,8.566-4.84c6.791-11.273,18.688-18.004,31.824-18.004c20.468,0,37.121,16.652,37.121,37.121
				C346.833,281.824,342.49,291.098,334.917,297.408z"/>
			<path d="M430,120h-40V30c0-16.542-13.458-30-30-30H120c-16.542,0-30,13.458-30,30v90H50c-27.57,0-50,22.43-50,50v260
				c0,27.57,22.43,50,50,50h380c27.57,0,50-22.43,50-50V170C480,142.43,457.57,120,430,120z M110,30c0-5.514,4.486-10,10-10h240
				c5.514,0,10,4.486,10,10v90H110V30z M20,170c0-16.542,13.458-30,30-30h20v20c0,16.542-13.458,30-30,30H20V170z M70,460H50
				c-16.542,0-30-13.458-30-30v-20h20c16.542,0,30,13.458,30,30V460z M460,430c0,16.542-13.458,30-30,30h-20v-20
				c0-16.542,13.458-30,30-30h20V430z M460,390h-20c-27.57,0-50,22.43-50,50v20H90v-20c0-27.57-22.43-50-50-50H20V210h20
				c27.57,0,50-22.43,50-50v-20h300v20c0,27.57,22.43,50,50,50h20V390z M460,190h-20c-16.542,0-30-13.458-30-30v-20h20
				c16.542,0,30,13.458,30,30V190z"/>
		</g>
	</g>
</g>
<g>
</g>
<g>
</g>
<g>
</g>
<g>
</g>
<g>
</g>
<g>
</g>
<g>
</g>
<g>
</g>
<g>
</g>
<g>
</g>
<g>
</g>
<g>
</g>
<g>
</g>
<g>
</g>
<g>
</g>
</svg>
