<?xml version="1.0" encoding="iso-8859-1"?>
<!-- Generator: Adobe Illustrator 19.0.0, SVG Export Plug-In . SVG Version: 6.00 Build 0)  -->
<svg version="1.1" id="Layer_1" xmlns="http://www.w3.org/2000/svg" xmlns:xlink="http://www.w3.org/1999/xlink" x="0px" y="0px"
	 viewBox="0 0 512 512" style="enable-background:new 0 0 512 512;" xml:space="preserve">
<g>
	<g>
		<g>
			<path d="M248.849,439.851c1.57,2.423,4.267,3.883,7.151,3.883s5.581-1.459,7.151-3.883l110.686-170.3
				c1.451-2.005,35.763-49.937,35.763-115.951C409.6,68.907,340.693,0,256,0S102.4,68.907,102.4,153.6
				c0,57.771,33.971,113.109,35.516,115.584L248.849,439.851z M256,17.067c75.281,0,136.533,61.252,136.533,136.533
				c0,60.279-32.179,105.472-32.759,106.283L256,419.541L152.32,260.028c-0.333-0.529-32.853-53.47-32.853-106.428
				C119.467,78.319,180.719,17.067,256,17.067z"/>
			<path d="M503.467,401.067c4.719,0,8.533-3.823,8.533-8.533v-25.6c0-32.939-26.803-59.733-59.733-59.733
				c-4.719,0-8.533,3.823-8.533,8.533v82.492L396.8,460.8h-52.156l-17.067-51.2h90.556c4.719,0,8.533-3.823,8.533-8.533
				c0-4.71-3.814-8.533-8.533-8.533h-102.4c-2.739,0-5.316,1.314-6.929,3.55c-1.596,2.219-2.039,5.077-1.161,7.68l19.004,57.037
				H141.807l25.6-51.2h28.86c4.71,0,8.533-3.823,8.533-8.533c0-4.71-3.823-8.533-8.533-8.533h-102.4
				c-4.71,0-8.533,3.823-8.533,8.533c0,4.71,3.823,8.533,8.533,8.533h54.46l-24.448,48.896l-78.037-31.223
				c-4.403-1.749-9.344,0.384-11.102,4.753c-1.749,4.386,0.384,9.344,4.753,11.102l76.723,30.686l-10.556,21.12H59.733
				c-23.526,0-42.667-19.14-42.667-42.667c0-23.526,19.14-42.667,42.667-42.667c2.261,0,4.437-0.896,6.033-2.5
				c1.604-1.596,2.5-3.772,2.5-6.033l-0.009-85.333c0-4.71-3.823-8.533-8.533-8.533C26.795,307.2,0,333.995,0,366.933v25.6
				c0,4.71,3.823,8.533,8.533,8.533s8.533-3.823,8.533-8.533v-25.6c0-20.608,14.677-37.845,34.125-41.805l0.009,68.011
				C22.289,397.295,0,422.221,0,452.267C0,485.205,26.795,512,59.733,512h290.108h0.026h0.026h102.374
				c32.93,0,59.733-26.795,59.733-59.733c0-30.046-22.289-54.972-51.2-59.128v-68.011c19.447,3.959,34.133,21.197,34.133,41.805
				v25.6C494.933,397.244,498.748,401.067,503.467,401.067z M124.74,494.933l8.533-17.067h199.066l5.692,17.067H124.74z
				 M494.933,452.267c0,23.526-19.14,42.667-42.667,42.667h-96.247l-5.692-17.067h119.006c4.719,0,8.533-3.823,8.533-8.533
				c0-4.71-3.814-8.533-8.533-8.533h-51.2l38.101-50.799C477.875,412.041,494.933,430.097,494.933,452.267z"/>
			<path d="M256,221.867c37.641,0,68.267-30.626,68.267-68.267c0-37.641-30.626-68.267-68.267-68.267
				c-37.641,0-68.267,30.626-68.267,68.267C187.733,191.241,218.359,221.867,256,221.867z M256,102.4
				c28.237,0,51.2,22.963,51.2,51.2c0,28.237-22.963,51.2-51.2,51.2s-51.2-22.963-51.2-51.2C204.8,125.363,227.763,102.4,256,102.4z
				"/>
		</g>
	</g>
</g>
<g>
</g>
<g>
</g>
<g>
</g>
<g>
</g>
<g>
</g>
<g>
</g>
<g>
</g>
<g>
</g>
<g>
</g>
<g>
</g>
<g>
</g>
<g>
</g>
<g>
</g>
<g>
</g>
<g>
</g>
</svg>
