<svg xmlns="http://www.w3.org/2000/svg" shape-rendering="geometricPrecision" text-rendering="geometricPrecision" image-rendering="optimizeQuality" fill-rule="evenodd" clip-rule="evenodd" viewBox="0 0 512 471.15"><path fill-rule="nonzero" d="M36.15 235.04c5.75-5.91 15.16-6.55 21.66-1.23L98 266.69c6.85 5.61 7.86 15.72 2.25 22.58-5.61 6.86-15.72 7.87-22.57 2.26l-14.44-11.82c9.19 42.77 31.48 80.65 62.46 109.26 37.2 34.35 86.94 55.33 141.6 55.33 57.64 0 109.83-23.36 147.6-61.13 37.76-37.77 61.13-89.96 61.13-147.6 0-7.41 6.01-13.42 13.42-13.42s13.42 6.01 13.42 13.42c0 65.05-26.37 123.95-69 166.58-42.63 42.63-101.52 69-166.57 69-61.62 0-117.75-23.7-159.74-62.47-34.49-31.85-59.45-73.88-70.1-121.3l-8.4 11.84c-5.13 7.2-15.13 8.88-22.33 3.76-7.2-5.13-8.89-15.13-3.76-22.33l30.07-42.33c.9-1.27 1.95-2.36 3.11-3.28zm157.54-99.78c33.18-41.01 71.42-63.31 100.14-26.83 33 1.73 47.15 51.82 24.45 76.53 1.62-.02 3.15.31 4.48 1.03 1.73.95 3.04 2.48 3.71 4.67 1.36 4.4-.54 8.8-1.52 13.07-1.52 6.59-3.2 13.85-10.71 13.45l-1.2-.14c-.28 13.64-6.94 19.93-15.66 28.11 1.66 2.42 3.32 4.86 5.15 7.2 1.15 1.48 1.92 2.47 3.28 3.62 15.01 12.57 43.23 15.31 59.13 24.18 5.13 2.86 9.78 6.51 13.5 11.43 9.34 12.33 10.85 29.19 12.72 44.07.25 1.01.39 2.04.39 3.08 0 2.05-1.66 3.71-3.71 3.71H140.32c-2.04 0-3.71-1.66-3.71-3.71 0-1.05.15-2.1.4-3.13 1.88-14.85 3.38-31.7 12.71-44.02 3.74-4.92 8.37-8.56 13.51-11.43 15.72-8.77 42.58-11.54 58.57-23.75 2.64-4.54 4.74-10.04 6.54-14.97-6.34-5.88-11.21-12.23-12.31-24.34l-.76.02c-1.76-.03-3.46-.43-5.03-1.33-3.5-1.99-5.41-5.79-6.34-10.13-1.11-5.18-2.44-20.11 4.7-23.02-.88-16.37 1.89-42.29-14.91-47.37zm99.53 113.83c-8.62 8.03-18.02 11.93-27.56 11.94-9.98 0-19.99-4.27-29.29-12.55l-3.49-3.04c-1.89 5.01-4.26 11.02-7.22 15.44 15.67 31.75 61.96 32.86 76.97.18-3.77-3.82-6.62-7.9-9.41-11.97zm-3.84-109.95c-7.56 7.61-15.56 9.81-23.4 10.49-2.32.42-4.58.69-6.84.97-7.52.93-15.04 1.86-25 8.75-4.73 3.27-7.88 7.24-9.49 11.85-1.62 4.67-1.72 10.15-.36 16.37.13.59.1 1.23-.13 1.84a3.288 3.288 0 0 1-4.22 1.96c-2.65-.97-8.36-4.01-9.79-.63-.47 3.61-.77 9.07.19 13.55 1 4.69 2.76 7.31 7.79 5.77l.88-.14a3.292 3.292 0 0 1 3.37 3.2c.36 14.9 6.97 20.6 15.01 27.52l3.36 2.92c8.08 7.19 16.59 10.9 24.91 10.9 8.1 0 16.21-3.54 23.77-10.83l3.41-3.24c8.43-7.92 14.65-13.77 13.45-27.99-.2-2.69 2.79-4.55 5.1-3.01.91.6 2.07 1.17 3.18 1.22 2.77.15 4.31-10.43 5.27-13.27.59-2.21.66-3.76.35-4.75-.32-1.07-1.28-1.13-2.26-1.04-1.63.15-3.57.98-5.4 2.32-.72.63-1.71.95-2.73.78a3.302 3.302 0 0 1-2.69-3.8c3.11-18.1 1.69-29.89-2.17-37.93-3.37-7.04-8.76-11.32-14.61-14.5l-.95.72zM66.73 177.43c-2.06 7.09-9.48 11.18-16.57 9.13-7.09-2.06-11.18-9.48-9.12-16.57C55.4 120.33 85.69 77.41 126 47.13 165.4 17.54 214.33 0 267.3 0c49.1 0 94.74 15.07 132.52 40.83 31.39 21.39 57.34 50.19 75.34 83.87l5.77-15.78c3.02-8.32 12.2-12.61 20.51-9.6 8.31 3.01 12.61 12.2 9.6 20.51l-17.83 48.76a16.03 16.03 0 0 1-2.34 4.27c-4.03 7.04-12.82 10.01-20.39 6.63l-47.44-21.1c-8.07-3.6-11.69-13.07-8.09-21.14 3.6-8.07 13.07-11.69 21.14-8.09l14.53 6.46a209.784 209.784 0 0 0-65.89-72.67c-33.42-22.78-73.85-36.1-117.43-36.1-47.04 0-90.41 15.51-125.26 41.68-35.73 26.83-62.58 64.88-75.31 108.9z"/></svg>