<?xml version="1.0" encoding="iso-8859-1"?>
<!-- Generator: Adobe Illustrator 19.0.0, SVG Export Plug-In . SVG Version: 6.00 Build 0)  -->
<svg version="1.1" id="Layer_1" xmlns="http://www.w3.org/2000/svg" xmlns:xlink="http://www.w3.org/1999/xlink" x="0px" y="0px"
	 viewBox="0 0 512 512" style="enable-background:new 0 0 512 512;" xml:space="preserve">
<g>
	<g>
		<g>
			<path d="M175.403,112.367c-3.925-2.628-9.225-1.553-11.836,2.364c-0.751,1.135-18.5,28.169-18.5,64.469
				c0,33.783,24.004,79.113,68.514,99.499c1.399,15.258,8.525,25.011,17.903,30.677c4.941,15.582,22.101,40.491,58.65,40.491
				c36.54,0,53.709-24.909,58.641-40.491c9.395-5.666,16.521-15.42,17.911-30.677c44.501-20.395,68.514-65.715,68.514-99.499
				c0-36.301-17.741-63.334-18.5-64.469c-2.611-3.917-7.91-4.992-11.836-2.364c-3.925,2.611-4.983,7.91-2.364,11.836
				c0.154,0.23,15.633,23.808,15.633,54.997c0,26.889-18.415,62.609-52.685,81.084c-2.799-11.725-8.687-17.988-9.549-18.85
				c-3.302-3.302-8.567-3.277-11.921-0.043c-3.337,3.234-3.422,8.61-0.247,12.015c0.247,0.265,6.135,6.699,6.135,19.661
				c0,21.154-13.926,25.6-25.6,25.6c-14.814,0-21.495-11.238-24.115-18.944c14.268-5.385,24.115-21.257,24.115-32.256
				c0-0.341-0.119-0.572-0.137-0.896c-0.017-0.171,0.051-0.333,0.017-0.512l-8.533-51.2c-0.768-4.642-5.163-7.791-9.813-7.006
				c-4.651,0.777-7.791,5.171-7.014,9.822l5.538,33.263c-4.659-0.478-9.574-0.538-14.191-0.538c-4.608,0-9.532,0.06-14.199,0.538
				l5.547-33.263c0.777-4.651-2.364-9.045-7.006-9.822c-4.668-0.751-9.045,2.372-9.822,7.006l-8.533,51.2
				c-0.034,0.179,0.034,0.341,0.017,0.512c-0.017,0.324-0.137,0.555-0.137,0.896c0,10.999,9.847,26.871,24.115,32.256
				c-2.62,7.706-9.293,18.944-24.115,18.944c-11.682,0-25.6-4.446-25.6-25.6c0-12.962,5.88-19.396,6.033-19.567
				c3.337-3.337,3.337-8.73,0-12.066c-3.337-3.336-8.73-3.336-12.066,0c-0.862,0.862-6.75,7.125-9.549,18.85
				c-34.27-18.475-52.685-54.195-52.685-81.084c0-30.959,15.488-54.775,15.633-54.997
				C180.378,120.277,179.319,114.978,175.403,112.367z M273.161,248.482c3.226-1.015,11.375-1.015,16.973-1.015
				c5.598,0,13.747,0,16.981,1.015c-0.896,5.675-8.687,16.051-16.981,16.051C281.856,264.533,274.074,254.182,273.161,248.482z
				 M256,315.733c16.145,0,27.281-8.311,34.133-18.21c6.852,9.899,17.988,18.21,34.133,18.21c0.785,0,1.579-0.051,2.355-0.085
				c-5.905,8.201-16.836,17.152-36.489,17.152c-19.413,0-30.362-8.943-36.343-17.143C254.532,315.691,255.266,315.733,256,315.733z"
				/>
			<path d="M341.419,444.211c0.213-14.131,1.05-44.134,4.156-67.618c0.614-4.668-2.662-8.96-7.339-9.574
				c-4.676-0.657-8.96,2.671-9.574,7.339c-3.243,24.482-4.096,54.818-4.309,69.376h-0.085c-4.719,0-8.533,3.823-8.533,8.533
				c0,4.71,3.814,8.533,8.533,8.533h8.533c25.6,0,25.6,12.843,25.6,17.067c0,11.204-12.877,17.067-25.6,17.067h-8.533
				c-14.114,0-25.6-11.486-25.6-25.6V384c0-4.71-3.823-8.533-8.533-8.533c-4.71,0-8.533,3.823-8.533,8.533v85.333
				c0,14.114-11.486,25.6-25.6,25.6h-8.533c-12.723,0-25.6-5.862-25.6-17.067c0-4.224,0-17.067,25.6-17.067H256
				c4.71,0,8.533-3.823,8.533-8.533c0-4.71-3.823-8.533-8.533-8.533h-0.077c-0.222-14.541-1.075-44.826-4.318-69.282
				c-0.606-4.668-4.907-7.945-9.574-7.339c-4.676,0.614-7.962,4.907-7.339,9.583c3.106,23.432,3.934,53.393,4.156,67.516
				c-21.487,2.509-34.048,14.686-34.048,33.655c0,19.78,17.946,34.133,42.667,34.133H256c13.943,0,26.342-6.724,34.133-17.092
				c7.791,10.368,20.19,17.092,34.133,17.092h8.533c24.721,0,42.667-14.353,42.667-34.133
				C375.467,458.897,362.906,446.72,341.419,444.211z"/>
			<path d="M187.733,494.933H179.2c-12.723,0-25.6-5.862-25.6-17.067c0-4.224,0-17.067,25.6-17.067c3.132,0,5.999-1.732,7.492-4.489
				c1.493-2.756,1.34-6.118-0.367-8.738c-0.162-0.247-15.659-24.559-15.659-72.107c0-11.375,2.884-21.231,8.585-29.312
				c2.722-3.849,1.8-9.173-2.048-11.887c-3.849-2.722-9.173-1.801-11.887,2.048c-7.305,10.342-11.085,22.648-11.537,36.506
				c-7.091-2.731-16.811-8.073-24.55-18.62c-12.143-16.529-15.471-40.439-9.899-71.074c4.215-23.194-8.892-37.606-22.852-41.182
				c-11.989-3.063-26.496,1.152-33.664,14.541c-17.169,2.901-28.681,18.347-28.681,32.367c0,4.873,1.434,9.173,4.139,12.433
				c3.166,3.814,7.885,5.914,13.269,5.914c18.79,0,25.6-15.309,25.6-25.6v-15.539c2.97-7.142,9.609-8.986,15.095-7.578
				c6.571,1.681,12.732,8.235,10.3,21.589c-6.443,35.43-2.091,63.77,12.928,84.233c12.612,17.169,29.414,24.03,38.716,26.65
				c1.724,25.122,7.305,43.196,11.819,53.965c-18.679,3.627-29.466,15.377-29.466,32.947c0,19.78,17.946,34.133,42.667,34.133h8.533
				c4.71,0,8.533-3.823,8.533-8.533S192.444,494.933,187.733,494.933z M60.075,281.498c-0.094,3.942-1.655,8.636-8.627,8.943
				c-0.444-0.759-0.546-4.275,1.852-8.439c0.956-1.673,3.089-4.719,6.775-6.784V281.498z"/>
			<path d="M238.933,166.4c0-7.057-5.743-12.8-12.8-12.8s-12.8,5.743-12.8,12.8s5.743,12.8,12.8,12.8S238.933,173.457,238.933,166.4
				z"/>
			<path d="M414.268,444.919c5.402-12.885,12.399-36.053,12.399-69.453c0-14.942-3.925-28.092-11.674-39.091
				c-2.705-3.857-8.021-4.779-11.895-2.074c-3.849,2.722-4.77,8.038-2.057,11.895c5.675,8.064,8.559,17.911,8.559,29.269
				c0,47.548-15.497,71.859-15.633,72.064c-1.741,2.62-1.911,5.99-0.427,8.764c1.485,2.773,4.378,4.506,7.526,4.506
				c25.6,0,25.6,12.843,25.6,17.067c0,11.204-12.877,17.067-25.6,17.067h-8.533c-4.719,0-8.533,3.823-8.533,8.533
				s3.814,8.533,8.533,8.533h8.533c24.721,0,42.667-14.353,42.667-34.133C443.733,460.297,432.947,448.546,414.268,444.919z"/>
			<path d="M359.518,226.091c1.57,2.756,4.454,4.309,7.424,4.309c1.434,0,2.884-0.358,4.216-1.118
				c25.079-14.276,29.611-39.049,29.781-40.107c0.802-4.634-2.313-9.054-6.955-9.847c-4.71-0.819-9.062,2.321-9.856,6.963
				c-0.034,0.171-3.26,17.826-21.419,28.16C358.613,216.781,357.18,221.995,359.518,226.091z"/>
			<path d="M477.867,51.2c0-28.237-22.963-51.2-51.2-51.2c-18.355,0-34.125,8.883-43.059,23.586C356.275,8.311,324.096,0,290.133,0
				c-34.031,0-66.295,8.346-93.679,23.697C187.213,9.088,171.366,0,153.6,0c-28.237,0-51.2,22.963-51.2,51.2
				c0,18.944,10.146,35.337,26.556,43.964c-11.964,24.832-18.022,53.043-18.022,84.036c0,52.915,14.763,94.541,43.878,123.725
				c3.115,3.115,8.107,3.354,11.503,0.521l4.352-3.627v12.297c0,2.816,1.391,5.453,3.712,7.04
				c10.726,7.33,22.861,13.449,36.062,18.185c0.947,0.341,1.92,0.503,2.876,0.503c3.499,0,6.784-2.176,8.03-5.658
				c1.596-4.437-0.717-9.327-5.154-10.914c-10.317-3.695-19.866-8.32-28.459-13.756V281.6c0-3.311-1.92-6.323-4.915-7.731
				c-2.995-1.391-6.536-0.939-9.079,1.178l-12.16,10.129C139.29,259.61,128,224,128,179.2c0-31.633,6.818-59.972,20.25-84.215
				c1.246-2.244,1.417-4.932,0.461-7.322c-0.964-2.381-2.953-4.207-5.402-4.966c-14.481-4.463-23.842-16.828-23.842-31.497
				c0-18.825,15.309-34.133,34.133-34.133c11.776,0,22.281,6.025,28.442,15.718c-10.769,7.535-20.599,16.247-29.193,26.103
				c-3.106,3.55-2.739,8.934,0.819,12.032c3.55,3.115,8.934,2.739,12.041-0.811c8.755-10.044,19.072-18.628,30.353-25.993
				c0.085-0.026,0.179-0.008,0.265-0.043c1.195-0.461,2.193-1.186,3.038-2.048c23.748-14.635,52.002-23.177,82.236-24.542v17.459
				c-16.444,1.22-32.623,5.76-46.942,14.037c-4.087,2.364-5.478,7.578-3.115,11.657c2.364,4.087,7.586,5.478,11.657,3.115
				c11.725-6.776,24.943-10.598,38.4-11.785v8.303c-10.249,1.015-20.335,3.797-29.679,8.482c-4.207,2.116-5.914,7.236-3.797,11.452
				c1.493,2.987,4.506,4.71,7.637,4.71c1.28,0,2.586-0.29,3.814-0.905c6.946-3.49,14.413-5.666,22.025-6.613V102.4
				c0,4.71,3.823,8.533,8.533,8.533c4.71,0,8.533-3.823,8.533-8.533V77.397c7.595,0.947,15.053,3.115,21.982,6.588
				c4.241,2.125,9.344,0.401,11.46-3.806c2.108-4.215,0.401-9.344-3.806-11.452c-9.327-4.676-19.405-7.45-29.636-8.465v-8.294
				c13.457,1.186,26.675,5.001,38.391,11.785c1.348,0.785,2.816,1.152,4.267,1.152c2.953,0,5.82-1.527,7.39-4.267
				c2.372-4.079,0.964-9.293-3.106-11.657c-14.319-8.277-30.498-12.817-46.942-14.037V17.485
				c46.498,2.099,88.542,21.026,116.25,53.026c1.681,1.946,4.07,2.944,6.451,2.944c1.98,0,3.977-0.683,5.581-2.082
				c3.567-3.081,3.951-8.465,0.87-12.032c-8.747-10.095-18.773-18.995-29.773-26.684c5.862-9.719,16.367-15.59,28.621-15.59
				c18.825,0,34.133,15.309,34.133,34.133c0,15.07-9.259,27.554-23.578,31.812c-2.483,0.734-4.489,2.543-5.461,4.941
				c-0.99,2.389-0.828,5.094,0.41,7.356c13.338,24.166,20.096,52.395,20.096,83.891c0,44.8-11.29,80.41-33.579,105.975
				l-12.151-10.129c-2.543-2.125-6.101-2.568-9.088-1.178c-2.995,1.408-4.915,4.42-4.915,7.731v25.916
				c-8.593,5.444-18.15,10.069-28.476,13.764c-4.437,1.596-6.75,6.477-5.154,10.914c1.246,3.482,4.531,5.658,8.03,5.658
				c0.956,0,1.929-0.162,2.876-0.503c13.218-4.736,25.352-10.854,36.079-18.193c2.321-1.587,3.712-4.224,3.712-7.04v-12.297
				l4.352,3.627c3.396,2.825,8.388,2.603,11.503-0.521c29.116-29.184,43.878-70.81,43.878-123.725
				c0-30.831-5.999-58.914-17.843-83.635C467.789,87.04,477.867,70.519,477.867,51.2z"/>
			<path d="M282.496,157.414c1.451,2.893,4.403,4.719,7.637,4.719s6.187-1.826,7.629-4.719c8.004-16,14.199-20.881,26.505-20.881
				c4.719,0,8.533-3.823,8.533-8.533s-3.814-8.533-8.533-8.533c-16.299,0-26.334,6.605-34.133,17.382
				c-7.799-10.778-17.835-17.382-34.133-17.382c-4.71,0-8.533,3.823-8.533,8.533s3.823,8.533,8.533,8.533
				C268.305,136.533,274.5,141.414,282.496,157.414z"/>
			<path d="M354.133,153.6c-7.057,0-12.8,5.743-12.8,12.8s5.743,12.8,12.8,12.8c7.057,0,12.8-5.743,12.8-12.8
				S361.19,153.6,354.133,153.6z"/>
			<path d="M196.13,186.231c-0.819-4.608-5.248-7.748-9.839-6.903c-4.651,0.794-7.765,5.214-6.963,9.847
				c0.179,1.058,4.702,25.83,29.781,40.107c1.34,0.759,2.79,1.118,4.215,1.118c2.97,0,5.854-1.553,7.424-4.309
				c2.33-4.096,0.905-9.31-3.191-11.639C199.706,204.288,196.275,187.025,196.13,186.231z"/>
		</g>
	</g>
</g>
<g>
</g>
<g>
</g>
<g>
</g>
<g>
</g>
<g>
</g>
<g>
</g>
<g>
</g>
<g>
</g>
<g>
</g>
<g>
</g>
<g>
</g>
<g>
</g>
<g>
</g>
<g>
</g>
<g>
</g>
</svg>
