<svg xmlns="http://www.w3.org/2000/svg" width="158" height="153" viewBox="0 0 158 153">
  <defs>
    <style>
      .cls-1 {
        fill: #3dd1d5;
      }
    </style>
  </defs>
  <g>
    <circle class="cls-1" cx="155.5" cy="2.5" r="2.5"/>
    <circle id="Ellipse_528_copy" data-name="Ellipse 528 copy" class="cls-1" cx="155.5" cy="15.5" r="2.5"/>
    <circle id="Ellipse_528_copy_3" data-name="Ellipse 528 copy 3" class="cls-1" cx="155.5" cy="29.5" r="2.5"/>
    <circle id="Ellipse_528_copy_2" data-name="Ellipse 528 copy 2" class="cls-1" cx="155.5" cy="42.5" r="2.5"/>
    <circle id="Ellipse_528_copy_7" data-name="Ellipse 528 copy 7" class="cls-1" cx="155.5" cy="56.5" r="2.5"/>
    <circle id="Ellipse_528_copy_6" data-name="Ellipse 528 copy 6" class="cls-1" cx="155.5" cy="69.5" r="2.5"/>
    <circle id="Ellipse_528_copy_5" data-name="Ellipse 528 copy 5" class="cls-1" cx="155.5" cy="83.5" r="2.5"/>
    <circle id="Ellipse_528_copy_4" data-name="Ellipse 528 copy 4" class="cls-1" cx="155.5" cy="96.5" r="2.5"/>
    <circle id="Ellipse_528_copy_11" data-name="Ellipse 528 copy 11" class="cls-1" cx="155.5" cy="110.5" r="2.5"/>
    <circle id="Ellipse_528_copy_10" data-name="Ellipse 528 copy 10" class="cls-1" cx="155.5" cy="123.5" r="2.5"/>
    <circle id="Ellipse_528_copy_9" data-name="Ellipse 528 copy 9" class="cls-1" cx="155.5" cy="137.5" r="2.5"/>
    <circle id="Ellipse_528_copy_8" data-name="Ellipse 528 copy 8" class="cls-1" cx="155.5" cy="150.5" r="2.5"/>
  </g>
  <g id="Group_84_copy" data-name="Group 84 copy">
    <circle class="cls-1" cx="144.5" cy="2.5" r="2.5"/>
    <circle id="Ellipse_528_copy-2" data-name="Ellipse 528 copy" class="cls-1" cx="144.5" cy="15.5" r="2.5"/>
    <circle id="Ellipse_528_copy_3-2" data-name="Ellipse 528 copy 3" class="cls-1" cx="144.5" cy="29.5" r="2.5"/>
    <circle id="Ellipse_528_copy_2-2" data-name="Ellipse 528 copy 2" class="cls-1" cx="144.5" cy="42.5" r="2.5"/>
    <circle id="Ellipse_528_copy_7-2" data-name="Ellipse 528 copy 7" class="cls-1" cx="144.5" cy="56.5" r="2.5"/>
    <circle id="Ellipse_528_copy_6-2" data-name="Ellipse 528 copy 6" class="cls-1" cx="144.5" cy="69.5" r="2.5"/>
    <circle id="Ellipse_528_copy_5-2" data-name="Ellipse 528 copy 5" class="cls-1" cx="144.5" cy="83.5" r="2.5"/>
    <circle id="Ellipse_528_copy_4-2" data-name="Ellipse 528 copy 4" class="cls-1" cx="144.5" cy="96.5" r="2.5"/>
    <circle id="Ellipse_528_copy_11-2" data-name="Ellipse 528 copy 11" class="cls-1" cx="144.5" cy="110.5" r="2.5"/>
    <circle id="Ellipse_528_copy_10-2" data-name="Ellipse 528 copy 10" class="cls-1" cx="144.5" cy="123.5" r="2.5"/>
    <circle id="Ellipse_528_copy_9-2" data-name="Ellipse 528 copy 9" class="cls-1" cx="144.5" cy="137.5" r="2.5"/>
    <circle id="Ellipse_528_copy_8-2" data-name="Ellipse 528 copy 8" class="cls-1" cx="144.5" cy="150.5" r="2.5"/>
  </g>
  <g id="Group_84_copy_2" data-name="Group 84 copy 2">
    <circle class="cls-1" cx="133.5" cy="2.5" r="2.5"/>
    <circle id="Ellipse_528_copy-3" data-name="Ellipse 528 copy" class="cls-1" cx="133.5" cy="15.5" r="2.5"/>
    <circle id="Ellipse_528_copy_3-3" data-name="Ellipse 528 copy 3" class="cls-1" cx="133.5" cy="29.5" r="2.5"/>
    <circle id="Ellipse_528_copy_2-3" data-name="Ellipse 528 copy 2" class="cls-1" cx="133.5" cy="42.5" r="2.5"/>
    <circle id="Ellipse_528_copy_7-3" data-name="Ellipse 528 copy 7" class="cls-1" cx="133.5" cy="56.5" r="2.5"/>
    <circle id="Ellipse_528_copy_6-3" data-name="Ellipse 528 copy 6" class="cls-1" cx="133.5" cy="69.5" r="2.5"/>
    <circle id="Ellipse_528_copy_5-3" data-name="Ellipse 528 copy 5" class="cls-1" cx="133.5" cy="83.5" r="2.5"/>
    <circle id="Ellipse_528_copy_4-3" data-name="Ellipse 528 copy 4" class="cls-1" cx="133.5" cy="96.5" r="2.5"/>
    <circle id="Ellipse_528_copy_11-3" data-name="Ellipse 528 copy 11" class="cls-1" cx="133.5" cy="110.5" r="2.5"/>
    <circle id="Ellipse_528_copy_10-3" data-name="Ellipse 528 copy 10" class="cls-1" cx="133.5" cy="123.5" r="2.5"/>
    <circle id="Ellipse_528_copy_9-3" data-name="Ellipse 528 copy 9" class="cls-1" cx="133.5" cy="137.5" r="2.5"/>
    <circle id="Ellipse_528_copy_8-3" data-name="Ellipse 528 copy 8" class="cls-1" cx="133.5" cy="150.5" r="2.5"/>
  </g>
  <g id="Group_84_copy_5" data-name="Group 84 copy 5">
    <circle class="cls-1" cx="122.5" cy="2.5" r="2.5"/>
    <circle id="Ellipse_528_copy-4" data-name="Ellipse 528 copy" class="cls-1" cx="122.5" cy="15.5" r="2.5"/>
    <circle id="Ellipse_528_copy_3-4" data-name="Ellipse 528 copy 3" class="cls-1" cx="122.5" cy="29.5" r="2.5"/>
    <circle id="Ellipse_528_copy_2-4" data-name="Ellipse 528 copy 2" class="cls-1" cx="122.5" cy="42.5" r="2.5"/>
    <circle id="Ellipse_528_copy_7-4" data-name="Ellipse 528 copy 7" class="cls-1" cx="122.5" cy="56.5" r="2.5"/>
    <circle id="Ellipse_528_copy_6-4" data-name="Ellipse 528 copy 6" class="cls-1" cx="122.5" cy="69.5" r="2.5"/>
    <circle id="Ellipse_528_copy_5-4" data-name="Ellipse 528 copy 5" class="cls-1" cx="122.5" cy="83.5" r="2.5"/>
    <circle id="Ellipse_528_copy_4-4" data-name="Ellipse 528 copy 4" class="cls-1" cx="122.5" cy="96.5" r="2.5"/>
    <circle id="Ellipse_528_copy_11-4" data-name="Ellipse 528 copy 11" class="cls-1" cx="122.5" cy="110.5" r="2.5"/>
    <circle id="Ellipse_528_copy_10-4" data-name="Ellipse 528 copy 10" class="cls-1" cx="122.5" cy="123.5" r="2.5"/>
    <circle id="Ellipse_528_copy_9-4" data-name="Ellipse 528 copy 9" class="cls-1" cx="122.5" cy="137.5" r="2.5"/>
    <circle id="Ellipse_528_copy_8-4" data-name="Ellipse 528 copy 8" class="cls-1" cx="122.5" cy="150.5" r="2.5"/>
  </g>
  <g id="Group_84_copy_4" data-name="Group 84 copy 4">
    <circle class="cls-1" cx="111.5" cy="2.5" r="2.5"/>
    <circle id="Ellipse_528_copy-5" data-name="Ellipse 528 copy" class="cls-1" cx="111.5" cy="15.5" r="2.5"/>
    <circle id="Ellipse_528_copy_3-5" data-name="Ellipse 528 copy 3" class="cls-1" cx="111.5" cy="29.5" r="2.5"/>
    <circle id="Ellipse_528_copy_2-5" data-name="Ellipse 528 copy 2" class="cls-1" cx="111.5" cy="42.5" r="2.5"/>
    <circle id="Ellipse_528_copy_7-5" data-name="Ellipse 528 copy 7" class="cls-1" cx="111.5" cy="56.5" r="2.5"/>
    <circle id="Ellipse_528_copy_6-5" data-name="Ellipse 528 copy 6" class="cls-1" cx="111.5" cy="69.5" r="2.5"/>
    <circle id="Ellipse_528_copy_5-5" data-name="Ellipse 528 copy 5" class="cls-1" cx="111.5" cy="83.5" r="2.5"/>
    <circle id="Ellipse_528_copy_4-5" data-name="Ellipse 528 copy 4" class="cls-1" cx="111.5" cy="96.5" r="2.5"/>
    <circle id="Ellipse_528_copy_11-5" data-name="Ellipse 528 copy 11" class="cls-1" cx="111.5" cy="110.5" r="2.5"/>
    <circle id="Ellipse_528_copy_10-5" data-name="Ellipse 528 copy 10" class="cls-1" cx="111.5" cy="123.5" r="2.5"/>
    <circle id="Ellipse_528_copy_9-5" data-name="Ellipse 528 copy 9" class="cls-1" cx="111.5" cy="137.5" r="2.5"/>
    <circle id="Ellipse_528_copy_8-5" data-name="Ellipse 528 copy 8" class="cls-1" cx="111.5" cy="150.5" r="2.5"/>
  </g>
  <g id="Group_84_copy_3" data-name="Group 84 copy 3">
    <circle class="cls-1" cx="100.5" cy="2.5" r="2.5"/>
    <circle id="Ellipse_528_copy-6" data-name="Ellipse 528 copy" class="cls-1" cx="100.5" cy="15.5" r="2.5"/>
    <circle id="Ellipse_528_copy_3-6" data-name="Ellipse 528 copy 3" class="cls-1" cx="100.5" cy="29.5" r="2.5"/>
    <circle id="Ellipse_528_copy_2-6" data-name="Ellipse 528 copy 2" class="cls-1" cx="100.5" cy="42.5" r="2.5"/>
    <circle id="Ellipse_528_copy_7-6" data-name="Ellipse 528 copy 7" class="cls-1" cx="100.5" cy="56.5" r="2.5"/>
    <circle id="Ellipse_528_copy_6-6" data-name="Ellipse 528 copy 6" class="cls-1" cx="100.5" cy="69.5" r="2.5"/>
    <circle id="Ellipse_528_copy_5-6" data-name="Ellipse 528 copy 5" class="cls-1" cx="100.5" cy="83.5" r="2.5"/>
    <circle id="Ellipse_528_copy_4-6" data-name="Ellipse 528 copy 4" class="cls-1" cx="100.5" cy="96.5" r="2.5"/>
    <circle id="Ellipse_528_copy_11-6" data-name="Ellipse 528 copy 11" class="cls-1" cx="100.5" cy="110.5" r="2.5"/>
    <circle id="Ellipse_528_copy_10-6" data-name="Ellipse 528 copy 10" class="cls-1" cx="100.5" cy="123.5" r="2.5"/>
    <circle id="Ellipse_528_copy_9-6" data-name="Ellipse 528 copy 9" class="cls-1" cx="100.5" cy="137.5" r="2.5"/>
    <circle id="Ellipse_528_copy_8-6" data-name="Ellipse 528 copy 8" class="cls-1" cx="100.5" cy="150.5" r="2.5"/>
  </g>
  <g id="Group_84_copy_8" data-name="Group 84 copy 8">
    <circle class="cls-1" cx="90.5" cy="2.5" r="2.5"/>
    <circle id="Ellipse_528_copy-7" data-name="Ellipse 528 copy" class="cls-1" cx="90.5" cy="15.5" r="2.5"/>
    <circle id="Ellipse_528_copy_3-7" data-name="Ellipse 528 copy 3" class="cls-1" cx="90.5" cy="29.5" r="2.5"/>
    <circle id="Ellipse_528_copy_2-7" data-name="Ellipse 528 copy 2" class="cls-1" cx="90.5" cy="42.5" r="2.5"/>
    <circle id="Ellipse_528_copy_7-7" data-name="Ellipse 528 copy 7" class="cls-1" cx="90.5" cy="56.5" r="2.5"/>
    <circle id="Ellipse_528_copy_6-7" data-name="Ellipse 528 copy 6" class="cls-1" cx="90.5" cy="69.5" r="2.5"/>
    <circle id="Ellipse_528_copy_5-7" data-name="Ellipse 528 copy 5" class="cls-1" cx="90.5" cy="83.5" r="2.5"/>
    <circle id="Ellipse_528_copy_4-7" data-name="Ellipse 528 copy 4" class="cls-1" cx="90.5" cy="96.5" r="2.5"/>
    <circle id="Ellipse_528_copy_11-7" data-name="Ellipse 528 copy 11" class="cls-1" cx="90.5" cy="110.5" r="2.5"/>
    <circle id="Ellipse_528_copy_10-7" data-name="Ellipse 528 copy 10" class="cls-1" cx="90.5" cy="123.5" r="2.5"/>
    <circle id="Ellipse_528_copy_9-7" data-name="Ellipse 528 copy 9" class="cls-1" cx="90.5" cy="137.5" r="2.5"/>
    <circle id="Ellipse_528_copy_8-7" data-name="Ellipse 528 copy 8" class="cls-1" cx="90.5" cy="150.5" r="2.5"/>
  </g>
  <g id="Group_84_copy_7" data-name="Group 84 copy 7">
    <circle class="cls-1" cx="79.5" cy="2.5" r="2.5"/>
    <circle id="Ellipse_528_copy-8" data-name="Ellipse 528 copy" class="cls-1" cx="79.5" cy="15.5" r="2.5"/>
    <circle id="Ellipse_528_copy_3-8" data-name="Ellipse 528 copy 3" class="cls-1" cx="79.5" cy="29.5" r="2.5"/>
    <circle id="Ellipse_528_copy_2-8" data-name="Ellipse 528 copy 2" class="cls-1" cx="79.5" cy="42.5" r="2.5"/>
    <circle id="Ellipse_528_copy_7-8" data-name="Ellipse 528 copy 7" class="cls-1" cx="79.5" cy="56.5" r="2.5"/>
    <circle id="Ellipse_528_copy_6-8" data-name="Ellipse 528 copy 6" class="cls-1" cx="79.5" cy="69.5" r="2.5"/>
    <circle id="Ellipse_528_copy_5-8" data-name="Ellipse 528 copy 5" class="cls-1" cx="79.5" cy="83.5" r="2.5"/>
    <circle id="Ellipse_528_copy_4-8" data-name="Ellipse 528 copy 4" class="cls-1" cx="79.5" cy="96.5" r="2.5"/>
    <circle id="Ellipse_528_copy_11-8" data-name="Ellipse 528 copy 11" class="cls-1" cx="79.5" cy="110.5" r="2.5"/>
    <circle id="Ellipse_528_copy_10-8" data-name="Ellipse 528 copy 10" class="cls-1" cx="79.5" cy="123.5" r="2.5"/>
    <circle id="Ellipse_528_copy_9-8" data-name="Ellipse 528 copy 9" class="cls-1" cx="79.5" cy="137.5" r="2.5"/>
    <circle id="Ellipse_528_copy_8-8" data-name="Ellipse 528 copy 8" class="cls-1" cx="79.5" cy="150.5" r="2.5"/>
  </g>
  <g id="Group_84_copy_6" data-name="Group 84 copy 6">
    <circle class="cls-1" cx="68.5" cy="2.5" r="2.5"/>
    <circle id="Ellipse_528_copy-9" data-name="Ellipse 528 copy" class="cls-1" cx="68.5" cy="15.5" r="2.5"/>
    <circle id="Ellipse_528_copy_3-9" data-name="Ellipse 528 copy 3" class="cls-1" cx="68.5" cy="29.5" r="2.5"/>
    <circle id="Ellipse_528_copy_2-9" data-name="Ellipse 528 copy 2" class="cls-1" cx="68.5" cy="42.5" r="2.5"/>
    <circle id="Ellipse_528_copy_7-9" data-name="Ellipse 528 copy 7" class="cls-1" cx="68.5" cy="56.5" r="2.5"/>
    <circle id="Ellipse_528_copy_6-9" data-name="Ellipse 528 copy 6" class="cls-1" cx="68.5" cy="69.5" r="2.5"/>
    <circle id="Ellipse_528_copy_5-9" data-name="Ellipse 528 copy 5" class="cls-1" cx="68.5" cy="83.5" r="2.5"/>
    <circle id="Ellipse_528_copy_4-9" data-name="Ellipse 528 copy 4" class="cls-1" cx="68.5" cy="96.5" r="2.5"/>
    <circle id="Ellipse_528_copy_11-9" data-name="Ellipse 528 copy 11" class="cls-1" cx="68.5" cy="110.5" r="2.5"/>
    <circle id="Ellipse_528_copy_10-9" data-name="Ellipse 528 copy 10" class="cls-1" cx="68.5" cy="123.5" r="2.5"/>
    <circle id="Ellipse_528_copy_9-9" data-name="Ellipse 528 copy 9" class="cls-1" cx="68.5" cy="137.5" r="2.5"/>
    <circle id="Ellipse_528_copy_8-9" data-name="Ellipse 528 copy 8" class="cls-1" cx="68.5" cy="150.5" r="2.5"/>
  </g>
  <g id="Group_84_copy_11" data-name="Group 84 copy 11">
    <circle class="cls-1" cx="57.5" cy="2.5" r="2.5"/>
    <circle id="Ellipse_528_copy-10" data-name="Ellipse 528 copy" class="cls-1" cx="57.5" cy="15.5" r="2.5"/>
    <circle id="Ellipse_528_copy_3-10" data-name="Ellipse 528 copy 3" class="cls-1" cx="57.5" cy="29.5" r="2.5"/>
    <circle id="Ellipse_528_copy_2-10" data-name="Ellipse 528 copy 2" class="cls-1" cx="57.5" cy="42.5" r="2.5"/>
    <circle id="Ellipse_528_copy_7-10" data-name="Ellipse 528 copy 7" class="cls-1" cx="57.5" cy="56.5" r="2.5"/>
    <circle id="Ellipse_528_copy_6-10" data-name="Ellipse 528 copy 6" class="cls-1" cx="57.5" cy="69.5" r="2.5"/>
    <circle id="Ellipse_528_copy_5-10" data-name="Ellipse 528 copy 5" class="cls-1" cx="57.5" cy="83.5" r="2.5"/>
    <circle id="Ellipse_528_copy_4-10" data-name="Ellipse 528 copy 4" class="cls-1" cx="57.5" cy="96.5" r="2.5"/>
    <circle id="Ellipse_528_copy_11-10" data-name="Ellipse 528 copy 11" class="cls-1" cx="57.5" cy="110.5" r="2.5"/>
    <circle id="Ellipse_528_copy_10-10" data-name="Ellipse 528 copy 10" class="cls-1" cx="57.5" cy="123.5" r="2.5"/>
    <circle id="Ellipse_528_copy_9-10" data-name="Ellipse 528 copy 9" class="cls-1" cx="57.5" cy="137.5" r="2.5"/>
    <circle id="Ellipse_528_copy_8-10" data-name="Ellipse 528 copy 8" class="cls-1" cx="57.5" cy="150.5" r="2.5"/>
  </g>
  <g id="Group_84_copy_10" data-name="Group 84 copy 10">
    <circle class="cls-1" cx="46.5" cy="2.5" r="2.5"/>
    <circle id="Ellipse_528_copy-11" data-name="Ellipse 528 copy" class="cls-1" cx="46.5" cy="15.5" r="2.5"/>
    <circle id="Ellipse_528_copy_3-11" data-name="Ellipse 528 copy 3" class="cls-1" cx="46.5" cy="29.5" r="2.5"/>
    <circle id="Ellipse_528_copy_2-11" data-name="Ellipse 528 copy 2" class="cls-1" cx="46.5" cy="42.5" r="2.5"/>
    <circle id="Ellipse_528_copy_7-11" data-name="Ellipse 528 copy 7" class="cls-1" cx="46.5" cy="56.5" r="2.5"/>
    <circle id="Ellipse_528_copy_6-11" data-name="Ellipse 528 copy 6" class="cls-1" cx="46.5" cy="69.5" r="2.5"/>
    <circle id="Ellipse_528_copy_5-11" data-name="Ellipse 528 copy 5" class="cls-1" cx="46.5" cy="83.5" r="2.5"/>
    <circle id="Ellipse_528_copy_4-11" data-name="Ellipse 528 copy 4" class="cls-1" cx="46.5" cy="96.5" r="2.5"/>
    <circle id="Ellipse_528_copy_11-11" data-name="Ellipse 528 copy 11" class="cls-1" cx="46.5" cy="110.5" r="2.5"/>
    <circle id="Ellipse_528_copy_10-11" data-name="Ellipse 528 copy 10" class="cls-1" cx="46.5" cy="123.5" r="2.5"/>
    <circle id="Ellipse_528_copy_9-11" data-name="Ellipse 528 copy 9" class="cls-1" cx="46.5" cy="137.5" r="2.5"/>
    <circle id="Ellipse_528_copy_8-11" data-name="Ellipse 528 copy 8" class="cls-1" cx="46.5" cy="150.5" r="2.5"/>
  </g>
  <g id="Group_84_copy_9" data-name="Group 84 copy 9">
    <circle class="cls-1" cx="35.5" cy="2.5" r="2.5"/>
    <circle id="Ellipse_528_copy-12" data-name="Ellipse 528 copy" class="cls-1" cx="35.5" cy="15.5" r="2.5"/>
    <circle id="Ellipse_528_copy_3-12" data-name="Ellipse 528 copy 3" class="cls-1" cx="35.5" cy="29.5" r="2.5"/>
    <circle id="Ellipse_528_copy_2-12" data-name="Ellipse 528 copy 2" class="cls-1" cx="35.5" cy="42.5" r="2.5"/>
    <circle id="Ellipse_528_copy_7-12" data-name="Ellipse 528 copy 7" class="cls-1" cx="35.5" cy="56.5" r="2.5"/>
    <circle id="Ellipse_528_copy_6-12" data-name="Ellipse 528 copy 6" class="cls-1" cx="35.5" cy="69.5" r="2.5"/>
    <circle id="Ellipse_528_copy_5-12" data-name="Ellipse 528 copy 5" class="cls-1" cx="35.5" cy="83.5" r="2.5"/>
    <circle id="Ellipse_528_copy_4-12" data-name="Ellipse 528 copy 4" class="cls-1" cx="35.5" cy="96.5" r="2.5"/>
    <circle id="Ellipse_528_copy_11-12" data-name="Ellipse 528 copy 11" class="cls-1" cx="35.5" cy="110.5" r="2.5"/>
    <circle id="Ellipse_528_copy_10-12" data-name="Ellipse 528 copy 10" class="cls-1" cx="35.5" cy="123.5" r="2.5"/>
    <circle id="Ellipse_528_copy_9-12" data-name="Ellipse 528 copy 9" class="cls-1" cx="35.5" cy="137.5" r="2.5"/>
    <circle id="Ellipse_528_copy_8-12" data-name="Ellipse 528 copy 8" class="cls-1" cx="35.5" cy="150.5" r="2.5"/>
  </g>
  <g id="Group_84_copy_14" data-name="Group 84 copy 14">
    <circle class="cls-1" cx="24.5" cy="2.5" r="2.5"/>
    <circle id="Ellipse_528_copy-13" data-name="Ellipse 528 copy" class="cls-1" cx="24.5" cy="15.5" r="2.5"/>
    <circle id="Ellipse_528_copy_3-13" data-name="Ellipse 528 copy 3" class="cls-1" cx="24.5" cy="29.5" r="2.5"/>
    <circle id="Ellipse_528_copy_2-13" data-name="Ellipse 528 copy 2" class="cls-1" cx="24.5" cy="42.5" r="2.5"/>
    <circle id="Ellipse_528_copy_7-13" data-name="Ellipse 528 copy 7" class="cls-1" cx="24.5" cy="56.5" r="2.5"/>
    <circle id="Ellipse_528_copy_6-13" data-name="Ellipse 528 copy 6" class="cls-1" cx="24.5" cy="69.5" r="2.5"/>
    <circle id="Ellipse_528_copy_5-13" data-name="Ellipse 528 copy 5" class="cls-1" cx="24.5" cy="83.5" r="2.5"/>
    <circle id="Ellipse_528_copy_4-13" data-name="Ellipse 528 copy 4" class="cls-1" cx="24.5" cy="96.5" r="2.5"/>
    <circle id="Ellipse_528_copy_11-13" data-name="Ellipse 528 copy 11" class="cls-1" cx="24.5" cy="110.5" r="2.5"/>
    <circle id="Ellipse_528_copy_10-13" data-name="Ellipse 528 copy 10" class="cls-1" cx="24.5" cy="123.5" r="2.5"/>
    <circle id="Ellipse_528_copy_9-13" data-name="Ellipse 528 copy 9" class="cls-1" cx="24.5" cy="137.5" r="2.5"/>
    <circle id="Ellipse_528_copy_8-13" data-name="Ellipse 528 copy 8" class="cls-1" cx="24.5" cy="150.5" r="2.5"/>
  </g>
  <g id="Group_84_copy_13" data-name="Group 84 copy 13">
    <circle class="cls-1" cx="13.5" cy="2.5" r="2.5"/>
    <circle id="Ellipse_528_copy-14" data-name="Ellipse 528 copy" class="cls-1" cx="13.5" cy="15.5" r="2.5"/>
    <circle id="Ellipse_528_copy_3-14" data-name="Ellipse 528 copy 3" class="cls-1" cx="13.5" cy="29.5" r="2.5"/>
    <circle id="Ellipse_528_copy_2-14" data-name="Ellipse 528 copy 2" class="cls-1" cx="13.5" cy="42.5" r="2.5"/>
    <circle id="Ellipse_528_copy_7-14" data-name="Ellipse 528 copy 7" class="cls-1" cx="13.5" cy="56.5" r="2.5"/>
    <circle id="Ellipse_528_copy_6-14" data-name="Ellipse 528 copy 6" class="cls-1" cx="13.5" cy="69.5" r="2.5"/>
    <circle id="Ellipse_528_copy_5-14" data-name="Ellipse 528 copy 5" class="cls-1" cx="13.5" cy="83.5" r="2.5"/>
    <circle id="Ellipse_528_copy_4-14" data-name="Ellipse 528 copy 4" class="cls-1" cx="13.5" cy="96.5" r="2.5"/>
    <circle id="Ellipse_528_copy_11-14" data-name="Ellipse 528 copy 11" class="cls-1" cx="13.5" cy="110.5" r="2.5"/>
    <circle id="Ellipse_528_copy_10-14" data-name="Ellipse 528 copy 10" class="cls-1" cx="13.5" cy="123.5" r="2.5"/>
    <circle id="Ellipse_528_copy_9-14" data-name="Ellipse 528 copy 9" class="cls-1" cx="13.5" cy="137.5" r="2.5"/>
    <circle id="Ellipse_528_copy_8-14" data-name="Ellipse 528 copy 8" class="cls-1" cx="13.5" cy="150.5" r="2.5"/>
  </g>
  <g id="Group_84_copy_12" data-name="Group 84 copy 12">
    <circle class="cls-1" cx="2.5" cy="2.5" r="2.5"/>
    <circle id="Ellipse_528_copy-15" data-name="Ellipse 528 copy" class="cls-1" cx="2.5" cy="15.5" r="2.5"/>
    <circle id="Ellipse_528_copy_3-15" data-name="Ellipse 528 copy 3" class="cls-1" cx="2.5" cy="29.5" r="2.5"/>
    <circle id="Ellipse_528_copy_2-15" data-name="Ellipse 528 copy 2" class="cls-1" cx="2.5" cy="42.5" r="2.5"/>
    <circle id="Ellipse_528_copy_7-15" data-name="Ellipse 528 copy 7" class="cls-1" cx="2.5" cy="56.5" r="2.5"/>
    <circle id="Ellipse_528_copy_6-15" data-name="Ellipse 528 copy 6" class="cls-1" cx="2.5" cy="69.5" r="2.5"/>
    <circle id="Ellipse_528_copy_5-15" data-name="Ellipse 528 copy 5" class="cls-1" cx="2.5" cy="83.5" r="2.5"/>
    <circle id="Ellipse_528_copy_4-15" data-name="Ellipse 528 copy 4" class="cls-1" cx="2.5" cy="96.5" r="2.5"/>
    <circle id="Ellipse_528_copy_11-15" data-name="Ellipse 528 copy 11" class="cls-1" cx="2.5" cy="110.5" r="2.5"/>
    <circle id="Ellipse_528_copy_10-15" data-name="Ellipse 528 copy 10" class="cls-1" cx="2.5" cy="123.5" r="2.5"/>
    <circle id="Ellipse_528_copy_9-15" data-name="Ellipse 528 copy 9" class="cls-1" cx="2.5" cy="137.5" r="2.5"/>
    <circle id="Ellipse_528_copy_8-15" data-name="Ellipse 528 copy 8" class="cls-1" cx="2.5" cy="150.5" r="2.5"/>
  </g>
</svg>
